<svg width="74" height="73" viewBox="0 0 74 73" fill="none" xmlns="http://www.w3.org/2000/svg">
<circle cx="36.8823" cy="36.5947" r="36.375" fill="white"/>
<g clip-path="url(#clip0_70_15255)">
<path d="M53.2517 20.2258H20.5142V52.9633H53.2517V20.2258Z" fill="#ECEFF1"/>
<path d="M36.8813 40.0375L53.2501 52.9634V27.4445L36.8813 40.0375Z" fill="#CFD8DC"/>
<path d="M54.6149 20.226H53.2509L36.8821 33.1518L20.5134 20.226H19.1493C16.8904 20.226 15.0571 22.0593 15.0571 24.3181V48.8713C15.0571 51.1302 16.8904 52.9635 19.1493 52.9635H20.5134V27.4446L36.8821 40.0349L53.2509 27.4418V52.9635H54.6149C56.8738 52.9635 58.7071 51.1302 58.7071 48.8713V24.3181C58.7071 22.0593 56.8738 20.226 54.6149 20.226Z" fill="#F44336"/>
</g>
<defs>
<clipPath id="clip0_70_15255">
<rect width="43.65" height="43.65" fill="white" transform="translate(15.0571 14.7697)"/>
</clipPath>
</defs>
</svg>
