<svg width="74" height="74" viewBox="0 0 74 74" fill="none" xmlns="http://www.w3.org/2000/svg">
<circle cx="37.2637" cy="37.1338" r="36.375" fill="white"/>
<g clip-path="url(#clip0_70_15223)">
<path d="M24.0127 47.968V44.4604L29.9366 47.89L37.2636 41.0308V56.62L24.0127 47.968Z" fill="#0093EB"/>
<path d="M16.9209 38.6931L24.6377 31.6779L37.265 39.4725L29.938 46.3318L16.9209 38.6931Z" fill="#0093EB"/>
<path d="M24.6362 31.6774L15.4385 24.6622L28.6894 17.6471L38.043 23.8827L24.6362 31.6774Z" fill="#0093EB"/>
<path d="M50.5136 48.0461L37.2627 56.6202V41.0309L44.8235 47.5784L50.5136 43.9929V48.0461Z" fill="#0093EB"/>
<path d="M44.8235 46.0193L37.2627 39.4718L49.968 31.3654L57.6068 37.9129L44.8235 46.0193Z" fill="#0093EB"/>
<path d="M49.9678 31.3656L38.042 23.8827L47.3955 17.6471L59.0875 24.6622L49.9678 31.3656Z" fill="#0093EB"/>
</g>
<defs>
<clipPath id="clip0_70_15223">
<rect width="43.65" height="43.65" fill="white" transform="translate(15.4385 15.3088)"/>
</clipPath>
</defs>
</svg>
