<svg width="74" height="74" viewBox="0 0 74 74" fill="none" xmlns="http://www.w3.org/2000/svg">
<circle cx="37.2256" cy="37.1338" r="36.375" fill="white"/>
<g clip-path="url(#clip0_70_15194)">
<path d="M31.3794 38.4128C28.8612 38.4128 26.8125 40.4615 26.8125 42.9797V54.3921C26.8125 56.9103 28.8612 58.9589 31.3794 58.9589C33.8976 58.959 35.9463 56.9104 35.9463 54.3922V42.9797C35.9463 40.4615 33.8976 38.4128 31.3794 38.4128Z" fill="#FF4340"/>
<path d="M24.2566 38.4128H19.8353C17.3974 38.4128 15.4141 40.3963 15.4141 42.8341C15.4141 45.272 17.3975 47.2554 19.8353 47.2554C22.2732 47.2554 24.2566 45.2719 24.2566 42.8341V38.4128Z" fill="#FF4340"/>
<path d="M15.4004 31.2883C15.4004 33.8065 17.449 35.8552 19.9673 35.8552H31.3796C33.8979 35.8552 35.9466 33.8065 35.9466 31.2883C35.9466 28.7701 33.8979 26.7214 31.3797 26.7214H19.9673C17.449 26.7214 15.4004 28.7701 15.4004 31.2883H15.4004Z" fill="#36C6FF"/>
<path d="M31.5267 24.1636H35.948V19.7423C35.948 17.3044 33.9646 15.321 31.5267 15.321C29.0888 15.321 27.1055 17.3045 27.1055 19.7423C27.1055 22.1801 29.0888 24.1636 31.5267 24.1636Z" fill="#36C6FF"/>
<path d="M43.0708 35.855C45.589 35.855 47.6377 33.8064 47.6377 31.2881V19.8757C47.6378 17.3575 45.589 15.3088 43.0708 15.3088C40.5526 15.3088 38.5039 17.3575 38.5039 19.8757V31.2881C38.5039 33.8064 40.5526 35.855 43.0708 35.855Z" fill="#0DC46E"/>
<path d="M50.1953 35.8555H54.6166C57.0545 35.8555 59.0378 33.872 59.0378 31.4342C59.0378 28.9963 57.0544 27.0129 54.6166 27.0129C52.1787 27.0129 50.1953 28.9964 50.1953 31.4342V35.8555Z" fill="#0DC46E"/>
<path d="M59.0501 42.9797C59.0501 40.4615 57.0014 38.4128 54.4832 38.4128H43.0708C40.5526 38.4128 38.5039 40.4615 38.5039 42.9797C38.5039 45.498 40.5526 47.5466 43.0708 47.5466H54.4831C57.0014 47.5467 59.0501 45.498 59.0501 42.9797Z" fill="#FDCB02"/>
<path d="M42.9252 50.1041H38.5039V54.5254C38.5039 56.9633 40.4873 58.9467 42.9252 58.9467C45.3631 58.9467 47.3464 56.9632 47.3464 54.5254C47.3464 52.0876 45.3631 50.1041 42.9252 50.1041Z" fill="#FDCB02"/>
</g>
<defs>
<clipPath id="clip0_70_15194">
<rect width="43.65" height="43.65" fill="white" transform="translate(15.4004 15.3088)"/>
</clipPath>
</defs>
</svg>
