<svg width="73" height="74" viewBox="0 0 73 74" fill="none" xmlns="http://www.w3.org/2000/svg">
<circle cx="36.375" cy="37.0837" r="36.375" fill="white"/>
<g clip-path="url(#clip0_70_15207)">
<path d="M56.835 24.8079H37.7381C36.9851 24.8079 36.374 25.419 36.374 26.1719C36.374 26.9249 36.9851 27.536 37.7381 27.536H52.8601L44.4793 34.0535L38.4692 30.2314L37.0069 32.5339L43.8273 36.8716C44.0482 37.0135 44.3047 37.0844 44.5584 37.0844C44.853 37.0844 45.1504 36.9889 45.3959 36.798L55.4709 28.9601V46.6329H37.7381C36.9851 46.6329 36.374 47.244 36.374 47.9969C36.374 48.7499 36.9851 49.361 37.7381 49.361H56.835C57.5879 49.361 58.199 48.7499 58.199 47.9969V26.1719C58.199 25.419 57.5879 24.8079 56.835 24.8079Z" fill="#1976D2"/>
<path d="M38.6091 16.9374C38.2981 16.6782 37.8807 16.5664 37.4879 16.6482L15.6629 20.7404C15.0163 20.8604 14.5498 21.4224 14.5498 22.0799V52.0893C14.5498 52.744 15.0163 53.3088 15.6629 53.4288L37.4879 57.521C37.5697 57.5374 37.6543 57.5455 37.7389 57.5455C38.0553 57.5455 38.3636 57.4364 38.6091 57.2318C38.9229 56.9726 39.1029 56.5852 39.1029 56.1815V17.9877C39.1029 17.5812 38.9229 17.1966 38.6091 16.9374Z" fill="#2196F3"/>
<path d="M26.8271 46.6327C23.0678 46.6327 20.0068 42.9606 20.0068 38.4483C20.0068 33.936 23.0678 30.2639 26.8271 30.2639C30.5865 30.2639 33.6475 33.936 33.6475 38.4483C33.6475 42.9606 30.5865 46.6327 26.8271 46.6327ZM26.8271 32.992C24.571 32.992 22.735 35.4392 22.735 38.4483C22.735 41.4574 24.571 43.9045 26.8271 43.9045C29.0833 43.9045 30.9193 41.4574 30.9193 38.4483C30.9193 35.4392 29.0833 32.992 26.8271 32.992Z" fill="#FAFAFA"/>
</g>
<defs>
<clipPath id="clip0_70_15207">
<rect width="43.65" height="43.65" fill="white" transform="translate(14.5498 15.2585)"/>
</clipPath>
</defs>
</svg>
