<svg width="73" height="74" viewBox="0 0 73 74" fill="none" xmlns="http://www.w3.org/2000/svg">
<circle cx="36.625" cy="37.0837" r="36.375" fill="white"/>
<g clip-path="url(#clip0_70_15213)">
<path d="M36.5861 29.0479L27.5268 44.761H27.5012L32.7474 51.1589L20.9755 56.098C20.7451 55.97 20.566 55.7909 20.4637 55.6118L14.9359 45.3752C14.6544 44.8121 14.8848 44.3771 14.9614 44.1212L29.7789 18.5299C29.8812 18.3763 30.0348 18.2228 30.2396 18.0947H30.2652L37.8657 20.4492L36.5861 29.0479Z" fill="#59C36A"/>
<path d="M58.4493 44.761L48.1871 51.1589L45.756 44.761L36.5857 29.0479L30.2646 18.0947C30.4436 17.9667 30.674 17.89 30.8788 17.89H42.3778C42.6338 17.9667 43.1456 17.9411 43.4782 18.5298L58.2957 44.1212C58.398 44.3004 58.4493 44.5306 58.4493 44.761Z" fill="#FFDA2D"/>
<path d="M43.4794 18.5308C43.1469 17.9421 42.635 17.9677 42.379 17.891H36.5869V29.0488L45.7572 44.7619L48.1883 51.1598L58.4505 44.7619C58.4505 44.5315 58.3992 44.3013 58.2969 44.1221L43.4794 18.5308Z" fill="#FDBF00"/>
<path d="M58.4499 44.7612C58.4499 44.9915 58.3986 45.2219 58.3219 45.3754L52.7941 55.612C52.5893 55.9447 52.1032 56.2773 51.6681 56.2773H21.5898C21.385 56.2773 21.1546 56.2005 20.9756 56.0982L27.5014 44.7612H58.4499Z" fill="#4086F4"/>
<path d="M36.5869 56.2772H51.6688C52.1039 56.2772 52.59 55.9445 52.7948 55.6118L58.3226 45.3753C58.3993 45.2218 58.4506 44.9913 58.4506 44.7611H36.587V56.2772H36.5869Z" fill="#4175DF"/>
</g>
<defs>
<clipPath id="clip0_70_15213">
<rect width="43.65" height="43.65" fill="white" transform="translate(14.7998 15.2585)"/>
</clipPath>
</defs>
</svg>
