<svg width="74" height="74" viewBox="0 0 74 74" fill="none" xmlns="http://www.w3.org/2000/svg">
<circle cx="37" cy="36.973" r="36.375" fill="white"/>
<g clip-path="url(#clip0_70_15233)">
<path d="M54.938 28.1065H19.1313C18.4245 28.1065 17.8525 27.5346 17.8525 26.8277V18.9844C17.8525 16.8689 19.5735 15.1479 21.689 15.1479H52.3804C54.4959 15.1479 56.2168 16.8689 56.2168 18.9844V26.8277C56.2168 27.5346 55.6448 28.1065 54.938 28.1065Z" fill="#E3E7EA"/>
<path d="M52.3799 15.1479H37.0342V28.1065H54.9375C55.6443 28.1065 56.2163 27.5346 56.2163 26.8277V18.9844C56.2163 16.8689 54.4954 15.1479 52.3799 15.1479Z" fill="#BABAC0"/>
<path d="M17.8035 42.1733C17.8039 42.1714 17.8041 42.1705 17.8041 42.1705L15.2599 30.0504C15.0809 28.8994 15.3878 27.7484 16.104 26.9044C16.8456 26.0349 17.9198 25.549 19.0451 25.549H54.9541C56.0795 25.549 57.1537 26.0349 57.8953 26.9044C58.6115 27.7485 58.9185 28.8994 58.7394 29.9992L56.1953 42.1765L58.7394 54.2966C58.9185 55.4475 58.6115 56.5985 57.8953 57.4424C57.1537 58.312 56.0796 58.798 54.9542 58.798H19.0451C17.9198 58.798 16.8456 58.312 16.1039 57.4424C15.3878 56.5984 15.0809 55.4475 15.2599 54.3477C15.2599 54.3477 17.7593 42.3845 17.8035 42.1733Z" fill="#4086F4"/>
<path d="M17.8041 42.1705C17.8041 42.1705 17.8039 42.1714 17.8035 42.1733H56.196L58.7394 29.9992C58.9185 28.8994 58.6115 27.7485 57.8953 26.9044C57.1537 26.0349 56.0796 25.549 54.9542 25.549H19.0451C17.9198 25.549 16.8456 26.0349 16.1039 26.9044C15.3878 27.7485 15.0809 28.8994 15.2599 30.0504L17.8041 42.1705Z" fill="#4175DF"/>
<path d="M24.2114 22.8208C24.9177 22.8208 25.4902 22.2483 25.4902 21.542C25.4902 20.8357 24.9177 20.2632 24.2114 20.2632C23.5052 20.2632 22.9326 20.8357 22.9326 21.542C22.9326 22.2483 23.5052 22.8208 24.2114 22.8208Z" fill="#FFF5F5"/>
<path d="M49.7876 22.8208C50.4939 22.8208 51.0664 22.2483 51.0664 21.542C51.0664 20.8357 50.4939 20.2632 49.7876 20.2632C49.0813 20.2632 48.5088 20.8357 48.5088 21.542C48.5088 22.2483 49.0813 22.8208 49.7876 22.8208Z" fill="#E3E7EA"/>
<path d="M31.8842 51.125C29.7212 51.125 27.7818 49.7551 27.0612 47.7144C26.8251 47.0488 27.1736 46.3182 27.8405 46.0834C28.5036 45.8462 29.2367 46.1971 29.4715 46.8627C29.8324 47.8818 30.8027 48.5674 31.8842 48.5674C33.2941 48.5674 34.4418 47.4197 34.4418 46.0098C34.4418 44.5998 33.2941 43.4521 31.8842 43.4521H30.2945C29.5889 43.4521 29.0157 42.8802 29.0157 42.1733C29.0157 41.4665 29.5889 40.8945 30.2945 40.8945H31.8842C33.2941 40.8945 34.4418 39.7468 34.4418 38.3369C34.4418 36.927 33.2941 35.7793 31.8842 35.7793C30.8027 35.7793 29.8324 36.4649 29.4714 37.4839C29.2366 38.1508 28.5023 38.5005 27.8404 38.2633C27.1736 38.0285 26.8251 37.2979 27.0611 36.6323C27.7818 34.5916 29.7212 33.2217 31.8842 33.2217C34.7053 33.2217 36.9994 35.5158 36.9994 38.3369C36.9994 39.863 36.3275 41.2355 35.2636 42.1733C36.3275 43.1112 36.9994 44.4837 36.9994 46.0098C36.9994 48.8309 34.7053 51.125 31.8842 51.125Z" fill="#FFF5F5"/>
<path d="M27.8404 38.2633C28.5023 38.5005 29.2366 38.1509 29.4714 37.4839C29.8324 36.4649 30.8027 35.7793 31.8842 35.7793C33.2941 35.7793 34.4418 36.927 34.4418 38.3369C34.4418 39.7468 33.2941 40.8945 31.8842 40.8945H30.2944C29.5889 40.8945 29.0157 41.4664 29.0156 42.1732H35.2637C36.3276 41.2353 36.9994 39.8629 36.9994 38.3369C36.9994 35.5158 34.7053 33.2217 31.8842 33.2217C29.7212 33.2217 27.7817 34.5916 27.0612 36.6323C26.8251 37.2979 27.1735 38.0285 27.8404 38.2633Z" fill="#E3E7EA"/>
<path d="M44.6733 51.1248C43.9665 51.1248 43.3945 50.5529 43.3945 49.846V36.8893L41.5462 38.1219C40.9568 38.5115 40.1637 38.3542 39.7728 37.7673C39.3807 37.1791 39.5393 36.3861 40.1275 35.9939L43.9639 33.4363C44.3561 33.1752 44.8618 33.1503 45.2765 33.3726C45.6924 33.5949 45.9521 34.0283 45.9521 34.5003V49.846C45.9521 50.5529 45.3802 51.1248 44.6733 51.1248Z" fill="#FFF5F5"/>
<path d="M41.5462 38.1224L43.3945 36.8898V42.1734H45.9521V34.5008C45.9521 34.0287 45.6924 33.5954 45.2765 33.3731C44.8619 33.1508 44.3561 33.1758 43.9639 33.4367L40.1275 35.9944C39.5393 36.3865 39.3807 37.1795 39.7728 37.7677C40.1638 38.3547 40.9568 38.5121 41.5462 38.1224Z" fill="#E3E7EA"/>
</g>
<defs>
<clipPath id="clip0_70_15233">
<rect width="43.65" height="43.65" fill="white" transform="translate(15.1748 15.1479)"/>
</clipPath>
</defs>
</svg>
