<svg width="211" height="71" viewBox="0 0 211 71" fill="none" xmlns="http://www.w3.org/2000/svg">
<path d="M90.2978 37.5525C90.2978 47.5966 82.4805 54.998 72.8869 54.998C63.2934 54.998 55.4761 47.5966 55.4761 37.5525C55.4761 27.4375 63.2934 20.1069 72.8869 20.1069C82.4805 20.1069 90.2978 27.4375 90.2978 37.5525ZM82.6761 37.5525C82.6761 31.2758 78.1454 26.9813 72.8869 26.9813C67.6285 26.9813 63.0977 31.2758 63.0977 37.5525C63.0977 43.7662 67.6285 48.1236 72.8869 48.1236C78.1454 48.1236 82.6761 43.7583 82.6761 37.5525Z" fill="#EA4335"/>
<path d="M127.858 37.5525C127.858 47.5966 120.041 54.998 110.447 54.998C100.854 54.998 93.0364 47.5966 93.0364 37.5525C93.0364 27.4453 100.854 20.1069 110.447 20.1069C120.041 20.1069 127.858 27.4375 127.858 37.5525ZM120.236 37.5525C120.236 31.2758 115.706 26.9813 110.447 26.9813C105.189 26.9813 100.658 31.2758 100.658 37.5525C100.658 43.7662 105.189 48.1236 110.447 48.1236C115.706 48.1236 120.236 43.7583 120.236 37.5525Z" fill="#FBBC05"/>
<path d="M163.853 21.1608V52.4811C163.853 65.3647 156.294 70.6267 147.358 70.6267C138.946 70.6267 133.883 64.9714 131.974 60.3465L138.61 57.57C139.791 60.4094 142.686 63.7601 147.35 63.7601C153.07 63.7601 156.615 60.2128 156.615 53.535V51.026H156.349C154.643 53.1418 151.357 54.9901 147.209 54.9901C138.531 54.9901 130.581 47.3921 130.581 37.6154C130.581 27.7678 138.531 20.1069 147.209 20.1069C151.349 20.1069 154.635 21.9553 156.349 24.0081H156.615V21.1687H163.853V21.1608ZM157.155 37.6154C157.155 31.4724 153.078 26.9813 147.89 26.9813C142.632 26.9813 138.226 31.4724 138.226 37.6154C138.226 43.6954 142.632 48.1236 147.89 48.1236C153.078 48.1236 157.155 43.6954 157.155 37.6154Z" fill="#4285F4"/>
<path d="M175.787 2.80267V53.9281H168.353V2.80267H175.787Z" fill="#34A853"/>
<path d="M204.755 43.2941L210.671 47.2583C208.762 50.0977 204.161 54.99 196.21 54.99C186.351 54.99 178.987 47.3291 178.987 37.5444C178.987 27.1699 186.413 20.0989 195.357 20.0989C204.364 20.0989 208.77 27.3036 210.21 31.197L211 33.1791L187.798 42.8379C189.575 46.338 192.337 48.1235 196.21 48.1235C200.092 48.1235 202.783 46.2043 204.755 43.2941ZM186.546 37.0175L202.056 30.5442C201.203 28.3655 198.636 26.8474 195.616 26.8474C191.742 26.8474 186.351 30.2846 186.546 37.0175Z" fill="#EA4335"/>
<path d="M27.3368 33.014V25.6126H52.1502C52.3928 26.9025 52.518 28.4284 52.518 30.0801C52.518 35.6332 51.0077 42.4997 46.1405 47.392C41.4063 52.3472 35.3575 54.99 27.3446 54.99C12.4925 54.99 0.00366211 42.83 0.00366211 27.9014C0.00366211 12.9728 12.4925 0.812805 27.3446 0.812805C35.561 0.812805 41.4141 4.05337 45.8119 8.27712L40.616 13.4998C37.4625 10.5266 33.19 8.21419 27.3368 8.21419C16.4912 8.21419 8.00875 16.9999 8.00875 27.9014C8.00875 38.8029 16.4912 47.5886 27.3368 47.5886C34.3715 47.5886 38.378 44.7492 40.9446 42.1693C43.0261 40.0771 44.3955 37.0883 44.9354 33.0061L27.3368 33.014Z" fill="#4285F4"/>
</svg>
