<svg width="1920" height="486" viewBox="0 0 1920 486" fill="none" xmlns="http://www.w3.org/2000/svg">
<path d="M99.7962 485.324C41.0986 485.324 -20.49 463.665 -75.0876 444.463C-91.8651 438.563 -107.712 432.989 -122.771 428.276L-366 352.16L-365.154 351.185L-121.925 427.301C-106.825 432.025 -90.9601 437.606 -74.1606 443.514C-17.4525 463.458 46.8254 486.064 107.205 484.105C172.765 481.98 207.302 447.256 230.067 417.245C237.512 407.429 244.701 397.442 251.655 387.782C270.675 361.366 290.34 334.05 316.512 308.626C337.294 288.44 363.111 267.27 391.17 247.407C421.952 225.616 454.91 205.623 489.121 187.986C526.842 168.541 565.197 152.456 603.116 140.179C645.058 126.601 686.377 117.736 725.934 113.829C805.176 106.003 877.247 117.879 940.14 149.132C992.407 175.101 1036.83 207.215 1079.79 238.271C1117.19 265.304 1155.85 293.254 1199.64 317.148C1250.21 344.744 1304.95 370.211 1362.33 392.839C1410.68 411.905 1470.85 435.635 1532.86 430.301C1585.24 425.797 1615.52 404.744 1625.43 365.934C1633.87 332.923 1625.84 293.763 1619.4 262.299C1617.2 251.576 1615.13 241.448 1614.11 233.234C1608.49 187.957 1612.07 150.58 1625.06 118.971C1633.16 99.2493 1645.12 81.6694 1660.6 66.72C1677.89 50.0206 1700.09 36.0992 1726.59 25.3434C1749.5 16.0383 1775.33 9.2802 1803.36 5.25614C1830.04 1.42579 1858.12 0.142405 1886.84 1.4412C1943.32 3.99477 1998.57 16.4456 2042.41 36.4977C2065.84 47.2161 2087.12 60.1116 2105.65 74.8232C2123.21 88.7665 2138.42 104.429 2150.86 121.38C2174.3 153.31 2187.76 189.648 2189.79 226.461L2187.96 226.498C2183.64 148.104 2128.81 77.4032 2041.3 37.376C1948.36 -5.13203 1816.43 -9.80989 1727.6 26.257C1639.61 61.9849 1603.08 129.661 1615.93 233.153C1616.94 241.34 1619.02 251.455 1621.21 262.165C1627.67 293.697 1635.71 332.94 1627.24 366.101C1622.62 384.163 1613.35 398.679 1599.67 409.248C1591.97 415.189 1582.7 420.045 1572.1 423.678C1560.82 427.543 1547.7 430.139 1533.12 431.393C1527.16 431.906 1521.09 432.164 1514.93 432.164C1492.45 432.164 1468.52 428.75 1442.29 421.833C1412.74 414.04 1384.23 402.796 1361.32 393.761C1303.86 371.101 1249.05 345.6 1198.4 317.964C1154.51 294.02 1115.81 266.037 1078.37 238.976C1035.47 207.959 991.099 175.885 938.964 149.982C876.492 118.943 804.915 107.143 726.22 114.916C567.032 130.638 403.053 226.652 318.058 309.207C291.956 334.56 272.317 361.839 253.322 388.22C246.364 397.884 239.172 407.879 231.719 417.703C216.605 437.628 201.678 451.895 184.743 462.597C174.172 469.276 162.704 474.542 150.657 478.247C137.261 482.366 122.671 484.708 107.289 485.208C104.805 485.285 102.302 485.324 99.7962 485.324Z" fill="#FFE492"/>
</svg>
