<svg width="178" height="178" viewBox="0 0 178 178" fill="none" xmlns="http://www.w3.org/2000/svg">
<g filter="url(#filter0_d_70_14461)">
<rect x="39" y="35" width="100" height="100" rx="10" fill="white"/>
</g>
<g clip-path="url(#clip0_70_14461)">
<path d="M61 66.5887V76.8345C61 79.9551 64.8608 81.6194 67.2201 79.435L78.4807 69.1891C80.9473 66.9527 79.3387 63 75.9605 63H64.6999C62.6623 63 61 64.6123 61 66.5887Z" fill="#5986EF"/>
<path d="M114.3 63H103.039C99.7148 63 98.0525 66.9527 100.519 69.1891L111.78 79.435C114.139 81.5674 118 79.9551 118 76.8345V66.5887C118 64.6123 116.338 63 114.3 63Z" fill="#5986EF"/>
<path d="M92.047 88.0167L111.78 106.012C114.139 108.144 118 106.532 118 103.411V93.0616C118 92.0734 117.571 91.1372 116.82 90.4611L92.047 67.837C90.5992 66.5368 88.4008 66.5368 86.953 67.837L62.1797 90.4611C61.429 91.1372 61 92.0734 61 93.0616V103.411C61 106.532 64.8608 108.196 67.2201 106.012L86.953 88.0167C88.4008 86.7164 90.5992 86.7164 92.047 88.0167Z" fill="#5986EF"/>
</g>
<defs>
<filter id="filter0_d_70_14461" x="0" y="0" width="178" height="178" filterUnits="userSpaceOnUse" color-interpolation-filters="sRGB">
<feFlood flood-opacity="0" result="BackgroundImageFix"/>
<feColorMatrix in="SourceAlpha" type="matrix" values="0 0 0 0 0 0 0 0 0 0 0 0 0 0 0 0 0 0 127 0" result="hardAlpha"/>
<feMorphology radius="11" operator="erode" in="SourceAlpha" result="effect1_dropShadow_70_14461"/>
<feOffset dy="4"/>
<feGaussianBlur stdDeviation="25"/>
<feComposite in2="hardAlpha" operator="out"/>
<feColorMatrix type="matrix" values="0 0 0 0 0 0 0 0 0 0 0 0 0 0 0 0 0 0 0.25 0"/>
<feBlend mode="normal" in2="BackgroundImageFix" result="effect1_dropShadow_70_14461"/>
<feBlend mode="normal" in="SourceGraphic" in2="effect1_dropShadow_70_14461" result="shape"/>
</filter>
<clipPath id="clip0_70_14461">
<rect width="57" height="44" fill="white" transform="translate(61 63)"/>
</clipPath>
</defs>
</svg>
