<svg width="737" height="21" viewBox="0 0 737 21" fill="none" xmlns="http://www.w3.org/2000/svg">
<path d="M9.48901 0.977539C9.14844 0.977539 8.80811 0.995848 8.46948 1.03235C8.1591 1.06405 7.85253 1.11604 7.55008 1.17913C7.49155 1.19138 7.43298 1.2043 7.37445 1.21781C5.59245 1.62353 3.96529 2.53464 2.68809 3.84188C2.56932 3.96362 2.45305 4.08897 2.33935 4.21788C-1.11075 8.17872 -0.696703 14.1865 3.26417 17.6366C7.05619 20.9396 12.7641 20.7198 16.291 17.135C16.41 17.0133 16.5262 16.8879 16.6397 16.759C18.1623 15.0251 19.0013 12.796 19 10.4885C19 5.23567 14.7418 0.977499 9.48901 0.977539ZM3.11069 4.31743C3.16078 4.26544 3.21277 4.21566 3.26382 4.16526C3.32278 4.10724 3.38143 4.0489 3.44167 3.99279C3.49461 3.94333 3.54914 3.89578 3.60336 3.84759C3.66454 3.79338 3.72541 3.73916 3.78819 3.68685C3.84335 3.64025 3.9001 3.59555 3.95653 3.55053C4.01994 3.49981 4.08334 3.44908 4.14865 3.40026C4.20635 3.35682 4.265 3.31466 4.32397 3.27344C4.3896 3.22652 4.45554 3.17834 4.52243 3.13458C4.58235 3.094 4.6429 3.05469 4.70377 3.0157C4.77162 2.97226 4.83978 2.92946 4.90858 2.88888C4.97052 2.85191 5.03285 2.81553 5.09562 2.77983C5.16581 2.73988 5.23627 2.70088 5.30709 2.66284C5.37049 2.62904 5.4339 2.59595 5.4973 2.56361C5.56959 2.52715 5.6425 2.49196 5.71574 2.4574C5.77915 2.42729 5.84509 2.39717 5.9104 2.36864C5.9849 2.33693 6.06035 2.30523 6.13581 2.27353C6.20143 2.24658 6.26674 2.22026 6.333 2.1949C6.40972 2.16574 6.48739 2.13847 6.56507 2.11121C6.63133 2.08806 6.69759 2.06492 6.7648 2.04304C6.84374 2.01768 6.92331 1.99422 7.0032 1.97108C7.0701 1.95174 7.13636 1.93177 7.20357 1.91369C7.22925 1.90704 7.25493 1.90165 7.28061 1.89499C6.34219 2.80618 5.64579 3.93703 5.25446 5.18515C4.50198 4.98668 3.77352 4.70635 3.08216 4.34913C3.09262 4.33804 3.1015 4.32694 3.11069 4.31743ZM2.6548 4.82785C3.41635 5.24047 4.22391 5.56186 5.06075 5.78529C4.65051 7.21177 4.43517 8.6872 4.42066 10.1714H0.619454C0.688528 8.21419 1.40427 6.33506 2.6548 4.82785ZM2.6548 16.1491C1.40435 14.6418 0.688607 12.7627 0.619454 10.8055H4.42066C4.43517 12.2897 4.65047 13.7651 5.06075 15.1916C4.22395 15.4151 3.41639 15.7365 2.6548 16.1491ZM7.20167 19.0645C7.13763 19.0483 7.07137 19.0274 7.00542 19.0081C6.92521 18.9846 6.84469 18.9611 6.76543 18.9355C6.69854 18.9139 6.63259 18.8908 6.56665 18.8676C6.48866 18.8407 6.41067 18.8131 6.33363 18.7836C6.26769 18.7586 6.2027 18.7322 6.13739 18.7056C6.06162 18.6739 5.98585 18.6422 5.91071 18.6105C5.84604 18.582 5.78168 18.5526 5.71764 18.5224C5.64377 18.4875 5.57022 18.452 5.49572 18.4152C5.43231 18.3835 5.36891 18.3518 5.3055 18.3172C5.23385 18.2789 5.16284 18.2396 5.09182 18.199C5.02841 18.1638 4.96818 18.1277 4.90699 18.0909C4.83724 18.049 4.76877 18.0059 4.70029 17.9619C4.64005 17.9235 4.57981 17.8845 4.52053 17.8445C4.453 17.7989 4.38611 17.7513 4.31985 17.7038C4.26183 17.6623 4.20381 17.6207 4.14675 17.577C4.08112 17.5275 4.01677 17.4765 3.95273 17.4251C3.89661 17.3804 3.84081 17.336 3.78597 17.2901C3.72256 17.2374 3.66137 17.1826 3.59987 17.1281C3.54597 17.0802 3.49176 17.0329 3.43913 16.9841C3.37858 16.9277 3.31993 16.869 3.26096 16.811C3.20992 16.7606 3.15793 16.7108 3.10784 16.6592C3.09864 16.6493 3.08977 16.6392 3.08057 16.6297C3.7719 16.2723 4.50036 15.9919 5.25287 15.7934C5.64429 17.0414 6.34065 18.1722 7.27902 19.0835C7.25334 19.0769 7.22735 19.0715 7.20167 19.0645ZM9.17202 19.3403C7.81544 19.1476 6.62625 17.7317 5.87806 15.6409C6.95977 15.3986 8.06364 15.2687 9.17202 15.2531V19.3403ZM9.17202 14.6191C7.99623 14.6345 6.82539 14.7742 5.67896 15.0356C5.28089 13.6602 5.0709 12.2372 5.05473 10.8055H9.17202V14.6191ZM9.17202 10.1714H5.05473C5.07086 8.73967 5.28085 7.31667 5.67896 5.94127C6.82539 6.2027 7.99627 6.34235 9.17202 6.35785V10.1714ZM9.17202 5.72378C8.0636 5.70833 6.95977 5.57839 5.87806 5.33605C6.62625 3.24523 7.81544 1.82936 9.17202 1.63661V5.72378ZM16.3233 4.82785C17.5738 6.3351 18.2895 8.21423 18.3586 10.1714H14.5574C14.5429 8.6872 14.3276 7.21177 13.9174 5.78529C14.7542 5.56174 15.5617 5.24039 16.3233 4.82785ZM11.7739 1.91211C11.8405 1.9286 11.9067 1.94952 11.9727 1.96886C12.0529 1.99232 12.1334 2.01578 12.2127 2.04146C12.2796 2.06302 12.3455 2.08616 12.4114 2.1093C12.4894 2.13625 12.5674 2.16383 12.6445 2.19332C12.7104 2.21836 12.7754 2.24468 12.8407 2.27131C12.9165 2.30301 12.9923 2.33471 13.0674 2.36642C13.1321 2.39495 13.1964 2.42431 13.2605 2.45455C13.3343 2.48942 13.4079 2.52493 13.4824 2.56171C13.5458 2.59341 13.6092 2.62511 13.6726 2.65967C13.7443 2.69803 13.8153 2.73734 13.8863 2.77792C13.9497 2.81311 14.0099 2.84926 14.0711 2.88603C14.1409 2.92788 14.2093 2.971 14.2778 3.01506C14.3381 3.05342 14.3983 3.09242 14.4576 3.13237C14.5251 3.17802 14.5917 3.22526 14.6579 3.27281C14.7163 3.31434 14.7743 3.35619 14.8317 3.39962C14.897 3.44876 14.961 3.49981 15.0254 3.55116C15.0812 3.59555 15.1373 3.63993 15.1921 3.68622C15.2555 3.73885 15.3167 3.79369 15.3782 3.84822C15.4321 3.8961 15.4863 3.94333 15.539 3.99216C15.5995 4.04859 15.6582 4.10724 15.7171 4.16526C15.7682 4.21566 15.8202 4.26544 15.8703 4.31711C15.8795 4.32694 15.8883 4.33709 15.8975 4.3466C15.2062 4.70397 14.4777 4.98443 13.7252 5.18293C13.3331 3.93469 12.6358 2.80396 11.6965 1.89309C11.7222 1.89975 11.7482 1.90513 11.7739 1.91211ZM9.80608 1.63661C11.1627 1.82936 12.3518 3.24523 13.1 5.33605C12.0183 5.57827 10.9145 5.70821 9.80608 5.72378V1.63661ZM9.80608 6.35785C10.9819 6.34239 12.1527 6.20274 13.2991 5.94127C13.6972 7.31667 13.9072 8.73967 13.9234 10.1714H9.80608V6.35785ZM9.80608 10.8055H13.9234C13.9072 12.2372 13.6973 13.6602 13.2991 15.0356C12.1527 14.7742 10.9819 14.6346 9.80608 14.6191V10.8055ZM9.80608 19.3403V15.2531C10.9145 15.2686 12.0183 15.3985 13.1 15.6409C12.3518 17.7317 11.1627 19.1476 9.80608 19.3403ZM15.8674 16.6595C15.8173 16.7112 15.7656 16.7609 15.7146 16.8113C15.6556 16.8694 15.5967 16.928 15.5361 16.9844C15.4835 17.0336 15.4293 17.0796 15.3754 17.1287C15.3139 17.1832 15.2527 17.2377 15.1899 17.2904C15.1344 17.3367 15.078 17.3814 15.0216 17.4264C14.9582 17.4771 14.8948 17.5278 14.8295 17.5767C14.7718 17.6201 14.7131 17.6623 14.6541 17.7035C14.5885 17.7504 14.5226 17.7986 14.4557 17.8423C14.3958 17.8829 14.3352 17.9222 14.2743 17.9609C14.2065 18.0046 14.1381 18.0469 14.0692 18.0877C14.0058 18.1248 13.9452 18.1609 13.8828 18.1968C13.8126 18.2367 13.742 18.2757 13.671 18.3138C13.6076 18.3476 13.5442 18.3807 13.4808 18.413C13.4085 18.4494 13.3356 18.4846 13.2624 18.5192C13.199 18.5493 13.133 18.5794 13.0677 18.608C12.9932 18.6397 12.9177 18.6714 12.8423 18.7031C12.7767 18.7297 12.7114 18.7563 12.6454 18.7814C12.5681 18.8109 12.4904 18.8384 12.4124 18.8654C12.3465 18.8885 12.2805 18.9117 12.2136 18.9332C12.1344 18.9589 12.0551 18.9824 11.9743 19.0055C11.908 19.0252 11.8414 19.0448 11.7745 19.0629C11.7489 19.0696 11.7232 19.0749 11.6975 19.0816C12.6359 18.1704 13.3323 17.0396 13.7236 15.7915C14.4761 15.9899 15.2046 16.2702 15.8959 16.6275C15.8855 16.6389 15.8766 16.65 15.8674 16.6595ZM16.3233 16.1491C15.5618 15.7364 14.7542 15.4151 13.9174 15.1916C14.3276 13.7651 14.5429 12.2897 14.5574 10.8055H18.3586C18.2896 12.7627 17.5738 14.6419 16.3233 16.1491Z" fill="white"/>
<path d="M26.4091 16.4766V4.8402H33.4318V6.0902H27.8182V10.022H33.0682V11.272H27.8182V15.2266H33.5227V16.4766H26.4091ZM36.8107 11.2266V16.4766H35.4698V7.74929H36.7652V9.11293H36.8789C37.0834 8.66974 37.394 8.31368 37.8107 8.04474C38.2273 7.77202 38.7652 7.63565 39.4243 7.63565C40.0152 7.63565 40.5323 7.75687 40.9755 7.99929C41.4186 8.23793 41.7633 8.60156 42.0095 9.0902C42.2558 9.57505 42.3789 10.1887 42.3789 10.9311V16.4766H41.038V11.022C41.038 10.3364 40.8599 9.80232 40.5039 9.41974C40.1478 9.03338 39.6592 8.8402 39.038 8.8402C38.6099 8.8402 38.2273 8.933 37.8902 9.11861C37.5569 9.30421 37.2936 9.57505 37.1005 9.93111C36.9073 10.2872 36.8107 10.719 36.8107 11.2266ZM48.0319 19.9311C47.3841 19.9311 46.8273 19.8478 46.3614 19.6811C45.8955 19.5182 45.5073 19.3023 45.1966 19.0334C44.8898 18.7682 44.6455 18.4841 44.4637 18.1811L45.5319 17.4311C45.6531 17.5902 45.8065 17.772 45.9921 17.9766C46.1777 18.1849 46.4315 18.3648 46.7535 18.5163C47.0792 18.6716 47.5054 18.7493 48.0319 18.7493C48.7364 18.7493 49.3179 18.5788 49.7762 18.2379C50.2345 17.897 50.4637 17.3629 50.4637 16.6357V14.8629H50.3501C50.2516 15.022 50.1114 15.219 49.9296 15.4538C49.7516 15.6849 49.494 15.8913 49.1569 16.0732C48.8235 16.2512 48.3728 16.3402 47.8046 16.3402C47.1001 16.3402 46.4675 16.1735 45.9069 15.8402C45.3501 15.5069 44.9088 15.022 44.583 14.3857C44.261 13.7493 44.1001 12.9766 44.1001 12.0675C44.1001 11.1735 44.2573 10.3951 44.5716 9.73224C44.886 9.06558 45.3235 8.55043 45.8841 8.18679C46.4448 7.81937 47.0925 7.63565 47.8273 7.63565C48.3955 7.63565 48.8463 7.73035 49.1796 7.91974C49.5167 8.10535 49.7743 8.31747 49.9523 8.55611C50.1341 8.79096 50.2743 8.98414 50.3728 9.13565H50.5091V7.74929H51.8046V16.7266C51.8046 17.4766 51.6341 18.0864 51.2932 18.5561C50.9561 19.0296 50.5016 19.3762 49.9296 19.5959C49.3614 19.8194 48.7288 19.9311 48.0319 19.9311ZM47.9864 15.1357C48.5243 15.1357 48.9788 15.0125 49.3501 14.7663C49.7213 14.5201 50.0035 14.166 50.1966 13.7038C50.3898 13.2417 50.4864 12.6887 50.4864 12.0447C50.4864 11.416 50.3917 10.861 50.2023 10.38C50.0129 9.89891 49.7326 9.52202 49.3614 9.24929C48.9902 8.97656 48.5319 8.8402 47.9864 8.8402C47.4182 8.8402 46.9448 8.98414 46.566 9.27202C46.191 9.5599 45.9088 9.94626 45.7194 10.4311C45.5338 10.916 45.441 11.4538 45.441 12.0447C45.441 12.6508 45.5357 13.1868 45.7251 13.6527C45.9182 14.1148 46.2023 14.4785 46.5773 14.7436C46.9561 15.005 47.4258 15.1357 47.9864 15.1357ZM55.2801 4.8402V16.4766H53.9391V4.8402H55.2801ZM57.416 16.4766V7.74929H58.7569V16.4766H57.416ZM58.0978 6.29474C57.8365 6.29474 57.6111 6.20573 57.4217 6.0277C57.2361 5.84967 57.1433 5.63565 57.1433 5.38565C57.1433 5.13565 57.2361 4.92164 57.4217 4.74361C57.6111 4.56558 57.8365 4.47656 58.0978 4.47656C58.3592 4.47656 58.5827 4.56558 58.7683 4.74361C58.9577 4.92164 59.0524 5.13565 59.0524 5.38565C59.0524 5.63565 58.9577 5.84967 58.7683 6.0277C58.5827 6.20573 58.3592 6.29474 58.0978 6.29474ZM67.0747 9.70384L65.8702 10.0447C65.7944 9.84399 65.6827 9.64891 65.5349 9.45952C65.391 9.26634 65.194 9.10724 64.944 8.98224C64.694 8.85724 64.374 8.79474 63.9838 8.79474C63.4497 8.79474 63.0046 8.91785 62.6486 9.16406C62.2963 9.40649 62.1202 9.7152 62.1202 10.0902C62.1202 10.4235 62.2414 10.6868 62.4838 10.88C62.7262 11.0732 63.105 11.2341 63.6202 11.3629L64.9156 11.6811C65.6959 11.8705 66.2774 12.1603 66.6599 12.5504C67.0425 12.9368 67.2338 13.4349 67.2338 14.0447C67.2338 14.5447 67.0899 14.9917 66.802 15.3857C66.5179 15.7796 66.1202 16.0902 65.6088 16.3175C65.0974 16.5447 64.5027 16.6584 63.8247 16.6584C62.9346 16.6584 62.1978 16.4652 61.6145 16.0788C61.0312 15.6925 60.6618 15.1281 60.5065 14.3857L61.7793 14.0675C61.9005 14.5372 62.1296 14.8894 62.4668 15.1243C62.8077 15.3591 63.2527 15.4766 63.802 15.4766C64.427 15.4766 64.9232 15.344 65.2906 15.0788C65.6618 14.8099 65.8474 14.4879 65.8474 14.1129C65.8474 13.8099 65.7414 13.5561 65.5293 13.3516C65.3171 13.1432 64.9914 12.9879 64.552 12.8857L63.0974 12.5447C62.2982 12.3554 61.7111 12.0618 61.3361 11.6641C60.9649 11.2625 60.7793 10.7607 60.7793 10.1584C60.7793 9.66596 60.9175 9.23035 61.194 8.85156C61.4743 8.47277 61.855 8.17543 62.3361 7.95952C62.8209 7.74361 63.3702 7.63565 63.9838 7.63565C64.8474 7.63565 65.5255 7.82505 66.0179 8.20383C66.5141 8.58262 66.8664 9.08262 67.0747 9.70384ZM70.2732 11.2266V16.4766H68.9323V4.8402H70.2732V9.11293H70.3868C70.5914 8.66217 70.8982 8.30421 71.3073 8.03906C71.7202 7.77012 72.2694 7.63565 72.955 7.63565C73.5497 7.63565 74.0705 7.75497 74.5175 7.99361C74.9645 8.22846 75.3111 8.5902 75.5573 9.07884C75.8073 9.56368 75.9323 10.1811 75.9323 10.9311V16.4766H74.5914V11.022C74.5914 10.3288 74.4114 9.79285 74.0516 9.41406C73.6955 9.03149 73.2012 8.8402 72.5686 8.8402C72.1292 8.8402 71.7353 8.933 71.3868 9.11861C71.0421 9.30421 70.7694 9.57505 70.5686 9.93111C70.3717 10.2872 70.2732 10.719 70.2732 11.2266Z" fill="white"/>
<path d="M88 7.47656L94 13.4766L100 7.47656" stroke="white" stroke-linecap="round" stroke-linejoin="round"/>
<path d="M164.773 6.0902V4.8402H173.5V6.0902H169.841V16.4766H168.432V6.0902H164.773ZM177.566 16.6584C176.725 16.6584 176 16.4728 175.39 16.1016C174.784 15.7266 174.316 15.2038 173.987 14.5334C173.661 13.8591 173.498 13.075 173.498 12.1811C173.498 11.2872 173.661 10.4993 173.987 9.81747C174.316 9.13187 174.775 8.59777 175.362 8.2152C175.953 7.82884 176.642 7.63565 177.43 7.63565C177.885 7.63565 178.333 7.71141 178.777 7.86293C179.22 8.01444 179.623 8.26065 179.987 8.60156C180.35 8.93868 180.64 9.38565 180.856 9.94247C181.072 10.4993 181.18 11.1849 181.18 11.9993V12.5675H174.453V11.4084H179.816C179.816 10.916 179.718 10.4766 179.521 10.0902C179.328 9.70383 179.051 9.39891 178.691 9.17543C178.335 8.95194 177.915 8.8402 177.43 8.8402C176.896 8.8402 176.434 8.97277 176.044 9.23793C175.657 9.49929 175.36 9.8402 175.152 10.2607C174.943 10.6811 174.839 11.1319 174.839 11.6129V12.3857C174.839 13.0447 174.953 13.6035 175.18 14.0618C175.411 14.5163 175.731 14.8629 176.14 15.1016C176.549 15.3364 177.025 15.4538 177.566 15.4538C177.919 15.4538 178.237 15.4046 178.521 15.3061C178.809 15.2038 179.057 15.0523 179.265 14.8516C179.474 14.647 179.635 14.3932 179.748 14.0902L181.044 14.4538C180.907 14.8932 180.678 15.2796 180.356 15.6129C180.034 15.9425 179.636 16.2 179.163 16.3857C178.689 16.5675 178.157 16.6584 177.566 16.6584ZM182.9 16.4766V7.74929H184.195V9.06747H184.286C184.445 8.63565 184.733 8.28527 185.15 8.01633C185.566 7.7474 186.036 7.61293 186.559 7.61293C186.657 7.61293 186.78 7.61482 186.928 7.61861C187.076 7.6224 187.188 7.62808 187.263 7.63565V8.99929C187.218 8.98793 187.114 8.97088 186.951 8.94815C186.792 8.92164 186.623 8.90838 186.445 8.90838C186.021 8.90838 185.642 8.9974 185.309 9.17543C184.979 9.34967 184.718 9.59209 184.525 9.9027C184.335 10.2095 184.241 10.5599 184.241 10.9538V16.4766H182.9ZM188.533 16.4766V7.74929H189.828V9.11293H189.942C190.124 8.64702 190.417 8.28527 190.823 8.0277C191.228 7.76634 191.715 7.63565 192.283 7.63565C192.859 7.63565 193.338 7.76634 193.72 8.0277C194.107 8.28527 194.408 8.64702 194.624 9.11293H194.715C194.938 8.66217 195.273 8.30421 195.72 8.03906C196.167 7.77012 196.703 7.63565 197.328 7.63565C198.109 7.63565 198.747 7.87997 199.243 8.36861C199.739 8.85346 199.987 9.60914 199.987 10.6357V16.4766H198.647V10.6357C198.647 9.99171 198.47 9.53149 198.118 9.25497C197.766 8.97846 197.351 8.8402 196.874 8.8402C196.26 8.8402 195.785 9.0258 195.448 9.39702C195.111 9.76444 194.942 10.2304 194.942 10.7947V16.4766H193.578V10.4993C193.578 10.0031 193.417 9.60346 193.095 9.30043C192.773 8.99361 192.359 8.8402 191.851 8.8402C191.503 8.8402 191.177 8.933 190.874 9.11861C190.575 9.30421 190.332 9.56179 190.147 9.89134C189.965 10.2171 189.874 10.594 189.874 11.022V16.4766H188.533ZM208.301 9.70384L207.096 10.0447C207.021 9.84399 206.909 9.64891 206.761 9.45952C206.617 9.26634 206.42 9.10724 206.17 8.98224C205.92 8.85724 205.6 8.79474 205.21 8.79474C204.676 8.79474 204.231 8.91785 203.875 9.16406C203.523 9.40649 203.346 9.7152 203.346 10.0902C203.346 10.4235 203.468 10.6868 203.71 10.88C203.952 11.0732 204.331 11.2341 204.846 11.3629L206.142 11.6811C206.922 11.8705 207.504 12.1603 207.886 12.5504C208.269 12.9368 208.46 13.4349 208.46 14.0447C208.46 14.5447 208.316 14.9917 208.028 15.3857C207.744 15.7796 207.346 16.0902 206.835 16.3175C206.324 16.5447 205.729 16.6584 205.051 16.6584C204.161 16.6584 203.424 16.4652 202.841 16.0788C202.257 15.6925 201.888 15.1281 201.733 14.3857L203.006 14.0675C203.127 14.5372 203.356 14.8894 203.693 15.1243C204.034 15.3591 204.479 15.4766 205.028 15.4766C205.653 15.4766 206.149 15.344 206.517 15.0788C206.888 14.8099 207.074 14.4879 207.074 14.1129C207.074 13.8099 206.968 13.5561 206.756 13.3516C206.543 13.1432 206.218 12.9879 205.778 12.8857L204.324 12.5447C203.524 12.3554 202.937 12.0618 202.562 11.6641C202.191 11.2625 202.006 10.7607 202.006 10.1584C202.006 9.66596 202.144 9.23035 202.42 8.85156C202.701 8.47277 203.081 8.17543 203.562 7.95952C204.047 7.74361 204.596 7.63565 205.21 7.63565C206.074 7.63565 206.752 7.82505 207.244 8.20383C207.74 8.58262 208.093 9.08262 208.301 9.70384ZM217.634 16.6357C216.869 16.6357 216.21 16.4955 215.657 16.2152C215.104 15.9349 214.678 15.5504 214.378 15.0618C214.079 14.5732 213.929 14.0144 213.929 13.3857C213.929 12.9008 214.032 12.4709 214.236 12.0959C214.445 11.7171 214.731 11.3667 215.094 11.0447C215.462 10.719 215.884 10.3932 216.361 10.0675L218.043 8.81747C218.373 8.60156 218.636 8.3705 218.833 8.12429C219.034 7.87808 219.134 7.55611 219.134 7.15838C219.134 6.86293 219.003 6.57694 218.742 6.30043C218.484 6.02391 218.145 5.88565 217.725 5.88565C217.429 5.88565 217.168 5.96141 216.941 6.11293C216.717 6.26065 216.541 6.45005 216.412 6.68111C216.287 6.90838 216.225 7.14323 216.225 7.38565C216.225 7.65838 216.299 7.9349 216.446 8.2152C216.598 8.49171 216.789 8.7758 217.02 9.06747C217.255 9.35535 217.498 9.6508 217.748 9.95384L223.089 16.4766H221.475L217.066 11.1584C216.657 10.666 216.285 10.219 215.952 9.81747C215.619 9.41596 215.354 9.02012 215.157 8.62997C214.96 8.23982 214.861 7.81747 214.861 7.36293C214.861 6.8402 214.977 6.38186 215.208 5.98793C215.443 5.5902 215.77 5.28149 216.191 5.06179C216.615 4.8383 217.111 4.72656 217.679 4.72656C218.263 4.72656 218.765 4.8402 219.185 5.06747C219.606 5.29096 219.929 5.5883 220.157 5.95952C220.384 6.32694 220.498 6.72656 220.498 7.15838C220.498 7.7152 220.359 8.19815 220.083 8.60724C219.806 9.01634 219.429 9.39702 218.952 9.74929L216.634 11.4766C216.111 11.8629 215.757 12.2379 215.571 12.6016C215.386 12.9652 215.293 13.2266 215.293 13.3857C215.293 13.7493 215.388 14.0883 215.577 14.4027C215.767 14.7171 216.034 14.9709 216.378 15.1641C216.723 15.3572 217.126 15.4538 217.589 15.4538C218.028 15.4538 218.456 15.361 218.873 15.1754C219.289 14.986 219.666 14.7133 220.003 14.3572C220.344 14.0012 220.613 13.5732 220.81 13.0732C221.011 12.5732 221.111 12.0107 221.111 11.3857H222.407C222.407 12.1584 222.318 12.7891 222.14 13.2777C221.962 13.7663 221.761 14.1489 221.537 14.4254C221.314 14.7019 221.134 14.9084 220.998 15.0447C220.952 15.1016 220.91 15.1584 220.873 15.2152C220.835 15.272 220.793 15.3288 220.748 15.3857C220.373 15.8061 219.899 16.1205 219.327 16.3288C218.755 16.5334 218.191 16.6357 217.634 16.6357ZM228.433 19.7493V7.74929H229.728V9.13565H229.887C229.986 8.98414 230.122 8.79096 230.297 8.55611C230.475 8.31747 230.728 8.10535 231.058 7.91974C231.391 7.73035 231.842 7.63565 232.41 7.63565C233.145 7.63565 233.793 7.81937 234.353 8.18679C234.914 8.55421 235.351 9.07505 235.666 9.74929C235.98 10.4235 236.137 11.219 236.137 12.1357C236.137 13.0599 235.98 13.861 235.666 14.5391C235.351 15.2133 234.916 15.736 234.359 16.1072C233.802 16.4747 233.16 16.6584 232.433 16.6584C231.872 16.6584 231.423 16.5656 231.086 16.38C230.749 16.1906 230.49 15.9766 230.308 15.7379C230.126 15.4955 229.986 15.2947 229.887 15.1357H229.774V19.7493H228.433ZM229.751 12.1129C229.751 12.772 229.848 13.3535 230.041 13.8572C230.234 14.3572 230.516 14.7493 230.887 15.0334C231.259 15.3137 231.713 15.4538 232.251 15.4538C232.812 15.4538 233.279 15.3061 233.654 15.0107C234.033 14.7114 234.317 14.3099 234.507 13.8061C234.7 13.2985 234.797 12.7341 234.797 12.1129C234.797 11.4993 234.702 10.9463 234.512 10.4538C234.327 9.95762 234.045 9.56558 233.666 9.2777C233.291 8.98603 232.819 8.8402 232.251 8.8402C231.706 8.8402 231.247 8.97846 230.876 9.25497C230.505 9.5277 230.225 9.91027 230.035 10.4027C229.846 10.8913 229.751 11.4614 229.751 12.1129ZM237.863 16.4766V7.74929H239.158V9.06747H239.249C239.408 8.63565 239.696 8.28527 240.113 8.01633C240.53 7.7474 240.999 7.61293 241.522 7.61293C241.62 7.61293 241.744 7.61482 241.891 7.61861C242.039 7.6224 242.151 7.62808 242.227 7.63565V8.99929C242.181 8.98793 242.077 8.97088 241.914 8.94815C241.755 8.92164 241.586 8.90838 241.408 8.90838C240.984 8.90838 240.605 8.9974 240.272 9.17543C239.942 9.34967 239.681 9.59209 239.488 9.9027C239.299 10.2095 239.204 10.5599 239.204 10.9538V16.4766H237.863ZM243.496 16.4766V7.74929H244.837V16.4766H243.496ZM244.178 6.29474C243.916 6.29474 243.691 6.20573 243.502 6.0277C243.316 5.84967 243.223 5.63565 243.223 5.38565C243.223 5.13565 243.316 4.92164 243.502 4.74361C243.691 4.56558 243.916 4.47656 244.178 4.47656C244.439 4.47656 244.663 4.56558 244.848 4.74361C245.038 4.92164 245.132 5.13565 245.132 5.38565C245.132 5.63565 245.038 5.84967 244.848 6.0277C244.663 6.20573 244.439 6.29474 244.178 6.29474ZM254.109 7.74929L250.882 16.4766H249.518L246.291 7.74929H247.746L250.155 14.7038H250.246L252.655 7.74929H254.109ZM257.862 16.6811C257.309 16.6811 256.807 16.5769 256.356 16.3686C255.905 16.1565 255.547 15.8516 255.282 15.4538C255.017 15.0523 254.884 14.5675 254.884 13.9993C254.884 13.4993 254.983 13.094 255.18 12.7834C255.377 12.469 255.64 12.2228 255.97 12.0447C256.299 11.8667 256.663 11.7341 257.061 11.647C257.462 11.5561 257.865 11.4841 258.271 11.4311C258.801 11.3629 259.231 11.3118 259.561 11.2777C259.894 11.2398 260.136 11.1773 260.288 11.0902C260.443 11.0031 260.521 10.8516 260.521 10.6357V10.5902C260.521 10.0296 260.367 9.59399 260.061 9.28338C259.758 8.97277 259.297 8.81747 258.68 8.81747C258.04 8.81747 257.538 8.95762 257.174 9.23793C256.811 9.51823 256.555 9.81747 256.407 10.1357L255.134 9.68111C255.362 9.1508 255.665 8.73793 256.044 8.44247C256.426 8.14323 256.843 7.9349 257.294 7.81747C257.748 7.69626 258.195 7.63565 258.634 7.63565C258.915 7.63565 259.237 7.66974 259.6 7.73793C259.968 7.80232 260.322 7.93679 260.663 8.14133C261.008 8.34588 261.294 8.65459 261.521 9.06747C261.748 9.48035 261.862 10.0334 261.862 10.7266V16.4766H260.521V15.2947H260.453C260.362 15.4841 260.21 15.6868 259.998 15.9027C259.786 16.1186 259.504 16.3023 259.151 16.4538C258.799 16.6054 258.369 16.6811 257.862 16.6811ZM258.066 15.4766C258.597 15.4766 259.044 15.3724 259.407 15.1641C259.775 14.9557 260.051 14.6868 260.237 14.3572C260.426 14.0277 260.521 13.6811 260.521 13.3175V12.0902C260.464 12.1584 260.339 12.2209 260.146 12.2777C259.956 12.3307 259.737 12.3781 259.487 12.4197C259.24 12.4576 259 12.4917 258.765 12.522C258.534 12.5485 258.347 12.5713 258.203 12.5902C257.854 12.6357 257.528 12.7095 257.225 12.8118C256.926 12.9103 256.684 13.0599 256.498 13.2607C256.316 13.4576 256.225 13.7266 256.225 14.0675C256.225 14.5334 256.398 14.8857 256.742 15.1243C257.091 15.3591 257.532 15.4766 258.066 15.4766ZM267.535 16.6584C266.716 16.6584 266.012 16.4652 265.421 16.0788C264.83 15.6925 264.376 15.1603 264.057 14.4822C263.739 13.8042 263.58 13.0296 263.58 12.1584C263.58 11.272 263.743 10.4898 264.069 9.81179C264.398 9.12997 264.857 8.59777 265.444 8.2152C266.035 7.82884 266.724 7.63565 267.512 7.63565C268.126 7.63565 268.679 7.74929 269.171 7.97656C269.663 8.20384 270.067 8.52202 270.381 8.93111C270.696 9.3402 270.891 9.81747 270.966 10.3629H269.626C269.523 9.9652 269.296 9.61293 268.944 9.30611C268.595 8.9955 268.126 8.8402 267.535 8.8402C267.012 8.8402 266.554 8.97656 266.16 9.24929C265.769 9.51823 265.465 9.89891 265.245 10.3913C265.029 10.88 264.921 11.4538 264.921 12.1129C264.921 12.7872 265.027 13.3743 265.239 13.8743C265.455 14.3743 265.758 14.7625 266.148 15.0391C266.542 15.3156 267.004 15.4538 267.535 15.4538C267.883 15.4538 268.199 15.3932 268.483 15.272C268.768 15.1508 269.008 14.9766 269.205 14.7493C269.402 14.522 269.542 14.2493 269.626 13.9311H270.966C270.891 14.4463 270.703 14.9103 270.404 15.3232C270.108 15.7322 269.716 16.058 269.228 16.3004C268.743 16.5391 268.179 16.6584 267.535 16.6584ZM273.47 19.7493C273.243 19.7493 273.04 19.7304 272.862 19.6925C272.684 19.6584 272.561 19.6243 272.493 19.5902L272.834 18.4084C273.16 18.4917 273.448 18.522 273.698 18.4993C273.948 18.4766 274.169 18.3648 274.362 18.1641C274.559 17.9671 274.739 17.647 274.902 17.2038L275.152 16.522L271.925 7.74929H273.379L275.788 14.7038H275.879L278.288 7.74929H279.743L276.038 17.7493C275.872 18.2 275.665 18.5732 275.419 18.8686C275.173 19.1679 274.887 19.3894 274.561 19.5334C274.239 19.6773 273.876 19.7493 273.47 19.7493Z" fill="white"/>
<path d="M348.773 7.74929C348.705 7.17353 348.428 6.72656 347.943 6.40838C347.458 6.0902 346.864 5.93111 346.159 5.93111C345.644 5.93111 345.193 6.01444 344.807 6.18111C344.424 6.34777 344.125 6.57694 343.909 6.86861C343.697 7.16027 343.591 7.49171 343.591 7.86293C343.591 8.17353 343.665 8.44058 343.812 8.66406C343.964 8.88376 344.157 9.06747 344.392 9.2152C344.627 9.35914 344.873 9.47846 345.131 9.57315C345.388 9.66406 345.625 9.73793 345.841 9.79474L347.023 10.1129C347.326 10.1925 347.663 10.3023 348.034 10.4425C348.409 10.5826 348.767 10.7739 349.108 11.0163C349.453 11.255 349.737 11.5618 349.96 11.9368C350.184 12.3118 350.295 12.772 350.295 13.3175C350.295 13.9463 350.131 14.5144 349.801 15.022C349.475 15.5296 348.998 15.933 348.369 16.2322C347.744 16.5315 346.985 16.6811 346.091 16.6811C345.258 16.6811 344.536 16.5466 343.926 16.2777C343.32 16.0088 342.843 15.6338 342.494 15.1527C342.15 14.6716 341.955 14.1129 341.909 13.4766H343.364C343.402 13.916 343.549 14.2796 343.807 14.5675C344.068 14.8516 344.398 15.0637 344.795 15.2038C345.197 15.3402 345.629 15.4084 346.091 15.4084C346.629 15.4084 347.112 15.3213 347.54 15.147C347.968 14.969 348.307 14.7228 348.557 14.4084C348.807 14.0902 348.932 13.719 348.932 13.2947C348.932 12.9084 348.824 12.594 348.608 12.3516C348.392 12.1091 348.108 11.9122 347.756 11.7607C347.403 11.6091 347.023 11.4766 346.614 11.3629L345.182 10.9538C344.273 10.6925 343.553 10.3194 343.023 9.83452C342.492 9.34967 342.227 8.7152 342.227 7.93111C342.227 7.27959 342.403 6.71141 342.756 6.22656C343.112 5.73793 343.589 5.35914 344.188 5.0902C344.79 4.81747 345.462 4.68111 346.205 4.68111C346.955 4.68111 347.621 4.81558 348.205 5.08452C348.788 5.34967 349.25 5.7133 349.591 6.17543C349.936 6.63755 350.117 7.16217 350.136 7.74929H348.773ZM355.769 16.6584C354.929 16.6584 354.203 16.4728 353.593 16.1016C352.987 15.7266 352.519 15.2038 352.19 14.5334C351.864 13.8591 351.701 13.075 351.701 12.1811C351.701 11.2872 351.864 10.4993 352.19 9.81747C352.519 9.13187 352.978 8.59777 353.565 8.2152C354.156 7.82884 354.845 7.63565 355.633 7.63565C356.088 7.63565 356.537 7.71141 356.98 7.86293C357.423 8.01444 357.826 8.26065 358.19 8.60156C358.554 8.93868 358.843 9.38565 359.059 9.94247C359.275 10.4993 359.383 11.1849 359.383 11.9993V12.5675H352.656V11.4084H358.019C358.019 10.916 357.921 10.4766 357.724 10.0902C357.531 9.70383 357.254 9.39891 356.894 9.17543C356.538 8.95194 356.118 8.8402 355.633 8.8402C355.099 8.8402 354.637 8.97277 354.247 9.23793C353.86 9.49929 353.563 9.8402 353.355 10.2607C353.146 10.6811 353.042 11.1319 353.042 11.6129V12.3857C353.042 13.0447 353.156 13.6035 353.383 14.0618C353.614 14.5163 353.934 14.8629 354.343 15.1016C354.752 15.3364 355.228 15.4538 355.769 15.4538C356.122 15.4538 356.44 15.4046 356.724 15.3061C357.012 15.2038 357.26 15.0523 357.468 14.8516C357.677 14.647 357.838 14.3932 357.951 14.0902L359.247 14.4538C359.11 14.8932 358.881 15.2796 358.559 15.6129C358.237 15.9425 357.84 16.2 357.366 16.3857C356.893 16.5675 356.36 16.6584 355.769 16.6584ZM364.648 16.6584C363.83 16.6584 363.126 16.4652 362.535 16.0788C361.944 15.6925 361.489 15.1603 361.171 14.4822C360.853 13.8042 360.694 13.0296 360.694 12.1584C360.694 11.272 360.857 10.4898 361.182 9.81179C361.512 9.12997 361.97 8.59777 362.557 8.2152C363.148 7.82884 363.838 7.63565 364.626 7.63565C365.239 7.63565 365.792 7.74929 366.285 7.97656C366.777 8.20384 367.181 8.52202 367.495 8.93111C367.809 9.3402 368.004 9.81747 368.08 10.3629H366.739C366.637 9.9652 366.41 9.61293 366.057 9.30611C365.709 8.9955 365.239 8.8402 364.648 8.8402C364.126 8.8402 363.667 8.97656 363.273 9.24929C362.883 9.51823 362.578 9.89891 362.359 10.3913C362.143 10.88 362.035 11.4538 362.035 12.1129C362.035 12.7872 362.141 13.3743 362.353 13.8743C362.569 14.3743 362.872 14.7625 363.262 15.0391C363.656 15.3156 364.118 15.4538 364.648 15.4538C364.997 15.4538 365.313 15.3932 365.597 15.272C365.881 15.1508 366.122 14.9766 366.319 14.7493C366.516 14.522 366.656 14.2493 366.739 13.9311H368.08C368.004 14.4463 367.817 14.9103 367.518 15.3232C367.222 15.7322 366.83 16.058 366.342 16.3004C365.857 16.5391 365.292 16.6584 364.648 16.6584ZM375.22 12.9084V7.74929H376.561V16.4766H375.22V14.9993H375.129C374.925 15.4425 374.607 15.8194 374.175 16.13C373.743 16.4368 373.198 16.5902 372.539 16.5902C371.993 16.5902 371.508 16.4709 371.084 16.2322C370.66 15.9898 370.326 15.6262 370.084 15.1413C369.842 14.6527 369.72 14.0372 369.72 13.2947V7.74929H371.061V13.2038C371.061 13.8402 371.239 14.3478 371.595 14.7266C371.955 15.1054 372.414 15.2947 372.97 15.2947C373.304 15.2947 373.643 15.2095 373.987 15.0391C374.336 14.8686 374.628 14.6072 374.862 14.255C375.101 13.9027 375.22 13.4538 375.22 12.9084ZM378.697 16.4766V7.74929H379.993V9.06747H380.084C380.243 8.63565 380.531 8.28527 380.947 8.01633C381.364 7.7474 381.834 7.61293 382.356 7.61293C382.455 7.61293 382.578 7.61482 382.726 7.61861C382.873 7.6224 382.985 7.62808 383.061 7.63565V8.99929C383.015 8.98793 382.911 8.97088 382.748 8.94815C382.589 8.92164 382.421 8.90838 382.243 8.90838C381.818 8.90838 381.44 8.9974 381.106 9.17543C380.777 9.34967 380.515 9.59209 380.322 9.9027C380.133 10.2095 380.038 10.5599 380.038 10.9538V16.4766H378.697ZM384.33 16.4766V7.74929H385.671V16.4766H384.33ZM385.012 6.29474C384.751 6.29474 384.525 6.20573 384.336 6.0277C384.15 5.84967 384.058 5.63565 384.058 5.38565C384.058 5.13565 384.15 4.92164 384.336 4.74361C384.525 4.56558 384.751 4.47656 385.012 4.47656C385.274 4.47656 385.497 4.56558 385.683 4.74361C385.872 4.92164 385.967 5.13565 385.967 5.38565C385.967 5.63565 385.872 5.84967 385.683 6.0277C385.497 6.20573 385.274 6.29474 385.012 6.29474ZM391.603 7.74929V8.88565H387.08V7.74929H391.603ZM388.398 5.65838H389.739V13.9766C389.739 14.3554 389.794 14.6394 389.904 14.8288C390.018 15.0144 390.161 15.1394 390.336 15.2038C390.514 15.2644 390.701 15.2947 390.898 15.2947C391.046 15.2947 391.167 15.2872 391.262 15.272C391.357 15.2531 391.432 15.2379 391.489 15.2266L391.762 16.4311C391.671 16.4652 391.544 16.4993 391.381 16.5334C391.218 16.5713 391.012 16.5902 390.762 16.5902C390.383 16.5902 390.012 16.5088 389.648 16.3459C389.288 16.183 388.989 15.9349 388.75 15.6016C388.516 15.2682 388.398 14.8478 388.398 14.3402V5.65838ZM394.163 19.7493C393.936 19.7493 393.733 19.7304 393.555 19.6925C393.377 19.6584 393.254 19.6243 393.186 19.5902L393.527 18.4084C393.853 18.4917 394.141 18.522 394.391 18.4993C394.641 18.4766 394.862 18.3648 395.055 18.1641C395.252 17.9671 395.432 17.647 395.595 17.2038L395.845 16.522L392.618 7.74929H394.072L396.482 14.7038H396.572L398.982 7.74929H400.436L396.732 17.7493C396.565 18.2 396.358 18.5732 396.112 18.8686C395.866 19.1679 395.58 19.3894 395.254 19.5334C394.932 19.6773 394.569 19.7493 394.163 19.7493Z" fill="white"/>
<path d="M468.773 7.74929C468.705 7.17353 468.428 6.72656 467.943 6.40838C467.458 6.0902 466.864 5.93111 466.159 5.93111C465.644 5.93111 465.193 6.01444 464.807 6.18111C464.424 6.34777 464.125 6.57694 463.909 6.86861C463.697 7.16027 463.591 7.49171 463.591 7.86293C463.591 8.17353 463.665 8.44058 463.812 8.66406C463.964 8.88376 464.157 9.06747 464.392 9.2152C464.627 9.35914 464.873 9.47846 465.131 9.57315C465.388 9.66406 465.625 9.73793 465.841 9.79474L467.023 10.1129C467.326 10.1925 467.663 10.3023 468.034 10.4425C468.409 10.5826 468.767 10.7739 469.108 11.0163C469.453 11.255 469.737 11.5618 469.96 11.9368C470.184 12.3118 470.295 12.772 470.295 13.3175C470.295 13.9463 470.131 14.5144 469.801 15.022C469.475 15.5296 468.998 15.933 468.369 16.2322C467.744 16.5315 466.985 16.6811 466.091 16.6811C465.258 16.6811 464.536 16.5466 463.926 16.2777C463.32 16.0088 462.843 15.6338 462.494 15.1527C462.15 14.6716 461.955 14.1129 461.909 13.4766H463.364C463.402 13.916 463.549 14.2796 463.807 14.5675C464.068 14.8516 464.398 15.0637 464.795 15.2038C465.197 15.3402 465.629 15.4084 466.091 15.4084C466.629 15.4084 467.112 15.3213 467.54 15.147C467.968 14.969 468.307 14.7228 468.557 14.4084C468.807 14.0902 468.932 13.719 468.932 13.2947C468.932 12.9084 468.824 12.594 468.608 12.3516C468.392 12.1091 468.108 11.9122 467.756 11.7607C467.403 11.6091 467.023 11.4766 466.614 11.3629L465.182 10.9538C464.273 10.6925 463.553 10.3194 463.023 9.83452C462.492 9.34967 462.227 8.7152 462.227 7.93111C462.227 7.27959 462.403 6.71141 462.756 6.22656C463.112 5.73793 463.589 5.35914 464.188 5.0902C464.79 4.81747 465.462 4.68111 466.205 4.68111C466.955 4.68111 467.621 4.81558 468.205 5.08452C468.788 5.34967 469.25 5.7133 469.591 6.17543C469.936 6.63755 470.117 7.16217 470.136 7.74929H468.773ZM475.906 7.74929V8.88565H471.383V7.74929H475.906ZM472.701 5.65838H474.042V13.9766C474.042 14.3554 474.097 14.6394 474.207 14.8288C474.321 15.0144 474.465 15.1394 474.639 15.2038C474.817 15.2644 475.004 15.2947 475.201 15.2947C475.349 15.2947 475.47 15.2872 475.565 15.272C475.66 15.2531 475.735 15.2379 475.792 15.2266L476.065 16.4311C475.974 16.4652 475.847 16.4993 475.684 16.5334C475.521 16.5713 475.315 16.5902 475.065 16.5902C474.686 16.5902 474.315 16.5088 473.951 16.3459C473.591 16.183 473.292 15.9349 473.054 15.6016C472.819 15.2682 472.701 14.8478 472.701 14.3402V5.65838ZM480.171 16.6811C479.618 16.6811 479.116 16.5769 478.665 16.3686C478.215 16.1565 477.857 15.8516 477.592 15.4538C477.326 15.0523 477.194 14.5675 477.194 13.9993C477.194 13.4993 477.292 13.094 477.489 12.7834C477.686 12.469 477.949 12.2228 478.279 12.0447C478.609 11.8667 478.972 11.7341 479.37 11.647C479.771 11.5561 480.175 11.4841 480.58 11.4311C481.11 11.3629 481.54 11.3118 481.87 11.2777C482.203 11.2398 482.446 11.1773 482.597 11.0902C482.753 11.0031 482.83 10.8516 482.83 10.6357V10.5902C482.83 10.0296 482.677 9.59399 482.37 9.28338C482.067 8.97277 481.607 8.81747 480.989 8.81747C480.349 8.81747 479.847 8.95762 479.484 9.23793C479.12 9.51823 478.864 9.81747 478.717 10.1357L477.444 9.68111C477.671 9.1508 477.974 8.73793 478.353 8.44247C478.735 8.14323 479.152 7.9349 479.603 7.81747C480.057 7.69626 480.504 7.63565 480.944 7.63565C481.224 7.63565 481.546 7.66974 481.91 7.73793C482.277 7.80232 482.631 7.93679 482.972 8.14133C483.317 8.34588 483.603 8.65459 483.83 9.06747C484.057 9.48035 484.171 10.0334 484.171 10.7266V16.4766H482.83V15.2947H482.762C482.671 15.4841 482.52 15.6868 482.307 15.9027C482.095 16.1186 481.813 16.3023 481.461 16.4538C481.109 16.6054 480.679 16.6811 480.171 16.6811ZM480.376 15.4766C480.906 15.4766 481.353 15.3724 481.717 15.1641C482.084 14.9557 482.36 14.6868 482.546 14.3572C482.735 14.0277 482.83 13.6811 482.83 13.3175V12.0902C482.773 12.1584 482.648 12.2209 482.455 12.2777C482.266 12.3307 482.046 12.3781 481.796 12.4197C481.55 12.4576 481.309 12.4917 481.074 12.522C480.843 12.5485 480.656 12.5713 480.512 12.5902C480.164 12.6357 479.838 12.7095 479.535 12.8118C479.235 12.9103 478.993 13.0599 478.807 13.2607C478.626 13.4576 478.535 13.7266 478.535 14.0675C478.535 14.5334 478.707 14.8857 479.052 15.1243C479.4 15.3591 479.842 15.4766 480.376 15.4766ZM490.094 7.74929V8.88565H485.571V7.74929H490.094ZM486.889 5.65838H488.23V13.9766C488.23 14.3554 488.285 14.6394 488.395 14.8288C488.509 15.0144 488.653 15.1394 488.827 15.2038C489.005 15.2644 489.192 15.2947 489.389 15.2947C489.537 15.2947 489.658 15.2872 489.753 15.272C489.848 15.2531 489.924 15.2379 489.98 15.2266L490.253 16.4311C490.162 16.4652 490.035 16.4993 489.872 16.5334C489.71 16.5713 489.503 16.5902 489.253 16.5902C488.874 16.5902 488.503 16.5088 488.139 16.3459C487.78 16.183 487.48 15.9349 487.242 15.6016C487.007 15.2682 486.889 14.8478 486.889 14.3402V5.65838ZM497.291 12.9084V7.74929H498.632V16.4766H497.291V14.9993H497.2C496.996 15.4425 496.677 15.8194 496.246 16.13C495.814 16.4368 495.268 16.5902 494.609 16.5902C494.064 16.5902 493.579 16.4709 493.155 16.2322C492.73 15.9898 492.397 15.6262 492.155 15.1413C491.912 14.6527 491.791 14.0372 491.791 13.2947V7.74929H493.132V13.2038C493.132 13.8402 493.31 14.3478 493.666 14.7266C494.026 15.1054 494.484 15.2947 495.041 15.2947C495.374 15.2947 495.713 15.2095 496.058 15.0391C496.407 14.8686 496.698 14.6072 496.933 14.255C497.172 13.9027 497.291 13.4538 497.291 12.9084ZM506.95 9.70384L505.745 10.0447C505.669 9.84399 505.558 9.64891 505.41 9.45952C505.266 9.26634 505.069 9.10724 504.819 8.98224C504.569 8.85724 504.249 8.79474 503.859 8.79474C503.325 8.79474 502.88 8.91785 502.524 9.16406C502.171 9.40649 501.995 9.7152 501.995 10.0902C501.995 10.4235 502.116 10.6868 502.359 10.88C502.601 11.0732 502.98 11.2341 503.495 11.3629L504.791 11.6811C505.571 11.8705 506.152 12.1603 506.535 12.5504C506.918 12.9368 507.109 13.4349 507.109 14.0447C507.109 14.5447 506.965 14.9917 506.677 15.3857C506.393 15.7796 505.995 16.0902 505.484 16.3175C504.972 16.5447 504.378 16.6584 503.7 16.6584C502.81 16.6584 502.073 16.4652 501.489 16.0788C500.906 15.6925 500.537 15.1281 500.382 14.3857L501.654 14.0675C501.775 14.5372 502.005 14.8894 502.342 15.1243C502.683 15.3591 503.128 15.4766 503.677 15.4766C504.302 15.4766 504.798 15.344 505.166 15.0788C505.537 14.8099 505.722 14.4879 505.722 14.1129C505.722 13.8099 505.616 13.5561 505.404 13.3516C505.192 13.1432 504.866 12.9879 504.427 12.8857L502.972 12.5447C502.173 12.3554 501.586 12.0618 501.211 11.6641C500.84 11.2625 500.654 10.7607 500.654 10.1584C500.654 9.66596 500.793 9.23035 501.069 8.85156C501.349 8.47277 501.73 8.17543 502.211 7.95952C502.696 7.74361 503.245 7.63565 503.859 7.63565C504.722 7.63565 505.4 7.82505 505.893 8.20383C506.389 8.58262 506.741 9.08262 506.95 9.70384Z" fill="white"/>
<path d="M572 10.6584C572 10.0372 572.152 9.47088 572.455 8.95952C572.758 8.44815 573.165 8.04096 573.676 7.73793C574.188 7.4349 574.754 7.28338 575.375 7.28338C575.913 7.28338 576.409 7.39891 576.864 7.62997C577.322 7.86103 577.701 8.17732 578 8.57884C578.299 8.97656 578.485 9.42732 578.557 9.93111H577.182C577.106 9.54096 576.896 9.22277 576.551 8.97656C576.206 8.72656 575.814 8.60156 575.375 8.60156C574.996 8.60156 574.652 8.69437 574.341 8.87997C574.03 9.06558 573.782 9.31368 573.597 9.62429C573.411 9.9349 573.318 10.2796 573.318 10.6584C573.318 11.0372 573.411 11.3819 573.597 11.6925C573.782 12.0031 574.03 12.2512 574.341 12.4368C574.652 12.6224 574.996 12.7152 575.375 12.7152C575.814 12.7152 576.186 12.5921 576.489 12.3459C576.795 12.0959 576.989 11.7758 577.068 11.3857H578.443C578.371 11.8894 578.195 12.3421 577.915 12.7436C577.634 13.1413 577.275 13.4557 576.835 13.6868C576.4 13.9179 575.913 14.0334 575.375 14.0334C574.754 14.0334 574.188 13.8819 573.676 13.5788C573.165 13.2758 572.758 12.8686 572.455 12.3572C572.152 11.8459 572 11.2796 572 10.6584ZM575.318 16.6584C574.492 16.6584 573.716 16.5031 572.989 16.1925C572.265 15.8819 571.627 15.4519 571.074 14.9027C570.525 14.3497 570.093 13.7114 569.778 12.9879C569.468 12.2644 569.314 11.4879 569.318 10.6584C569.322 9.82884 569.479 9.05232 569.79 8.32883C570.104 7.60535 570.536 6.96899 571.085 6.41974C571.634 5.86671 572.271 5.4349 572.994 5.12429C573.718 4.81368 574.492 4.65838 575.318 4.65838C576.148 4.65838 576.924 4.81368 577.648 5.12429C578.375 5.4349 579.011 5.86671 579.557 6.41974C580.106 6.96899 580.536 7.60535 580.847 8.32883C581.157 9.05232 581.314 9.82884 581.318 10.6584C581.322 11.4879 581.169 12.2644 580.858 12.9879C580.547 13.7114 580.117 14.3497 579.568 14.9027C579.019 15.4519 578.381 15.8819 577.653 16.1925C576.926 16.5031 576.148 16.6584 575.318 16.6584ZM575.318 15.3402C575.966 15.3402 576.574 15.219 577.142 14.9766C577.71 14.7341 578.208 14.3989 578.636 13.9709C579.064 13.5429 579.4 13.0466 579.642 12.4822C579.884 11.9141 580.004 11.308 580 10.6641C579.996 10.0163 579.873 9.40838 579.631 8.8402C579.388 8.27202 579.053 7.77391 578.625 7.34588C578.197 6.91785 577.701 6.58262 577.136 6.3402C576.572 6.09777 575.966 5.97656 575.318 5.97656C574.674 5.97656 574.07 6.09777 573.506 6.3402C572.941 6.58262 572.445 6.91974 572.017 7.35156C571.589 7.77959 571.252 8.2777 571.006 8.84588C570.763 9.41027 570.64 10.0163 570.636 10.6641C570.633 11.3042 570.752 11.9084 570.994 12.4766C571.237 13.041 571.572 13.5372 572 13.9652C572.432 14.3932 572.93 14.7304 573.494 14.9766C574.063 15.219 574.67 15.3402 575.318 15.3402ZM583.525 16.4766V15.4538L587.366 11.2493C587.817 10.7569 588.188 10.3288 588.48 9.9652C588.771 9.59777 588.987 9.25308 589.127 8.93111C589.271 8.60535 589.343 8.26444 589.343 7.90838C589.343 7.49929 589.245 7.14512 589.048 6.84588C588.855 6.54664 588.59 6.31558 588.252 6.1527C587.915 5.98982 587.537 5.90838 587.116 5.90838C586.669 5.90838 586.279 6.00118 585.946 6.18679C585.616 6.36861 585.36 6.62429 585.179 6.95383C585.001 7.28338 584.912 7.66974 584.912 8.11293H583.571C583.571 7.43111 583.728 6.83262 584.042 6.31747C584.357 5.80232 584.785 5.4008 585.326 5.11293C585.872 4.82505 586.484 4.68111 587.162 4.68111C587.843 4.68111 588.448 4.82505 588.974 5.11293C589.501 5.4008 589.913 5.78906 590.213 6.2777C590.512 6.76634 590.662 7.3099 590.662 7.90838C590.662 8.33641 590.584 8.75497 590.429 9.16406C590.277 9.56937 590.012 10.022 589.633 10.522C589.258 11.0182 588.737 11.6243 588.071 12.3402L585.457 15.1357V15.2266H590.866V16.4766H583.525ZM596.688 16.6357C595.832 16.6357 595.103 16.4027 594.501 15.9368C593.898 15.4671 593.438 14.7872 593.12 13.897C592.802 13.0031 592.643 11.9235 592.643 10.6584C592.643 9.4008 592.802 8.32694 593.12 7.43679C593.442 6.54285 593.904 5.86103 594.506 5.39133C595.112 4.91785 595.84 4.68111 596.688 4.68111C597.537 4.68111 598.262 4.91785 598.864 5.39133C599.47 5.86103 599.932 6.54285 600.251 7.43679C600.573 8.32694 600.734 9.4008 600.734 10.6584C600.734 11.9235 600.574 13.0031 600.256 13.897C599.938 14.7872 599.478 15.4671 598.876 15.9368C598.273 16.4027 597.544 16.6357 596.688 16.6357ZM596.688 15.3857C597.537 15.3857 598.196 14.9766 598.665 14.1584C599.135 13.3402 599.37 12.1735 599.37 10.6584C599.37 9.6508 599.262 8.79285 599.046 8.08452C598.834 7.37618 598.527 6.83641 598.126 6.4652C597.728 6.09399 597.249 5.90838 596.688 5.90838C595.847 5.90838 595.19 6.32315 594.717 7.1527C594.243 7.97846 594.006 9.14702 594.006 10.6584C594.006 11.666 594.112 12.522 594.324 13.2266C594.537 13.9311 594.842 14.4671 595.239 14.8345C595.641 15.2019 596.124 15.3857 596.688 15.3857ZM602.573 16.4766V15.4538L606.414 11.2493C606.864 10.7569 607.236 10.3288 607.527 9.9652C607.819 9.59777 608.035 9.25308 608.175 8.93111C608.319 8.60535 608.391 8.26444 608.391 7.90838C608.391 7.49929 608.292 7.14512 608.095 6.84588C607.902 6.54664 607.637 6.31558 607.3 6.1527C606.963 5.98982 606.584 5.90838 606.164 5.90838C605.717 5.90838 605.326 6.00118 604.993 6.18679C604.664 6.36861 604.408 6.62429 604.226 6.95383C604.048 7.28338 603.959 7.66974 603.959 8.11293H602.618C602.618 7.43111 602.775 6.83262 603.09 6.31747C603.404 5.80232 603.832 5.4008 604.374 5.11293C604.919 4.82505 605.531 4.68111 606.209 4.68111C606.891 4.68111 607.495 4.82505 608.022 5.11293C608.548 5.4008 608.961 5.78906 609.26 6.2777C609.559 6.76634 609.709 7.3099 609.709 7.90838C609.709 8.33641 609.631 8.75497 609.476 9.16406C609.325 9.56937 609.059 10.022 608.681 10.522C608.306 11.0182 607.785 11.6243 607.118 12.3402L604.504 15.1357V15.2266H609.914V16.4766H602.573ZM616.031 4.8402V16.4766H614.622V6.31747H614.554L611.713 8.20383V6.77202L614.622 4.8402H616.031ZM625.556 16.4766L622.374 4.8402H623.806L626.238 14.3175H626.351L628.829 4.8402H630.419L632.897 14.3175H633.01L635.442 4.8402H636.874L633.692 16.4766H632.238L629.669 7.20383H629.579L627.01 16.4766H625.556ZM639.469 11.2266V16.4766H638.128V4.8402H639.469V9.11293H639.582C639.787 8.66217 640.094 8.30421 640.503 8.03906C640.916 7.77012 641.465 7.63565 642.151 7.63565C642.745 7.63565 643.266 7.75497 643.713 7.99361C644.16 8.22846 644.507 8.5902 644.753 9.07884C645.003 9.56368 645.128 10.1811 645.128 10.9311V16.4766H643.787V11.022C643.787 10.3288 643.607 9.79285 643.247 9.41406C642.891 9.03149 642.397 8.8402 641.764 8.8402C641.325 8.8402 640.931 8.933 640.582 9.11861C640.238 9.30421 639.965 9.57505 639.764 9.93111C639.567 10.2872 639.469 10.719 639.469 11.2266ZM647.261 16.4766V7.74929H648.602V16.4766H647.261ZM647.943 6.29474C647.681 6.29474 647.456 6.20573 647.267 6.0277C647.081 5.84967 646.988 5.63565 646.988 5.38565C646.988 5.13565 647.081 4.92164 647.267 4.74361C647.456 4.56558 647.681 4.47656 647.943 4.47656C648.204 4.47656 648.428 4.56558 648.613 4.74361C648.803 4.92164 648.897 5.13565 648.897 5.38565C648.897 5.63565 648.803 5.84967 648.613 6.0277C648.428 6.20573 648.204 6.29474 647.943 6.29474ZM654.533 7.74929V8.88565H650.011V7.74929H654.533ZM651.329 5.65838H652.67V13.9766C652.67 14.3554 652.725 14.6394 652.834 14.8288C652.948 15.0144 653.092 15.1394 653.266 15.2038C653.444 15.2644 653.632 15.2947 653.829 15.2947C653.977 15.2947 654.098 15.2872 654.192 15.272C654.287 15.2531 654.363 15.2379 654.42 15.2266L654.692 16.4311C654.602 16.4652 654.475 16.4993 654.312 16.5334C654.149 16.5713 653.942 16.5902 653.692 16.5902C653.314 16.5902 652.942 16.5088 652.579 16.3459C652.219 16.183 651.92 15.9349 651.681 15.6016C651.446 15.2682 651.329 14.8478 651.329 14.3402V5.65838ZM659.796 16.6584C658.955 16.6584 658.229 16.4728 657.62 16.1016C657.014 15.7266 656.546 15.2038 656.216 14.5334C655.89 13.8591 655.728 13.075 655.728 12.1811C655.728 11.2872 655.89 10.4993 656.216 9.81747C656.546 9.13187 657.004 8.59777 657.591 8.2152C658.182 7.82884 658.871 7.63565 659.659 7.63565C660.114 7.63565 660.563 7.71141 661.006 7.86293C661.449 8.01444 661.853 8.26065 662.216 8.60156C662.58 8.93868 662.87 9.38565 663.086 9.94247C663.301 10.4993 663.409 11.1849 663.409 11.9993V12.5675H656.682V11.4084H662.046C662.046 10.916 661.947 10.4766 661.75 10.0902C661.557 9.70383 661.281 9.39891 660.921 9.17543C660.565 8.95194 660.144 8.8402 659.659 8.8402C659.125 8.8402 658.663 8.97277 658.273 9.23793C657.887 9.49929 657.589 9.8402 657.381 10.2607C657.173 10.6811 657.068 11.1319 657.068 11.6129V12.3857C657.068 13.0447 657.182 13.6035 657.409 14.0618C657.64 14.5163 657.961 14.8629 658.37 15.1016C658.779 15.3364 659.254 15.4538 659.796 15.4538C660.148 15.4538 660.466 15.4046 660.75 15.3061C661.038 15.2038 661.286 15.0523 661.495 14.8516C661.703 14.647 661.864 14.3932 661.978 14.0902L663.273 14.4538C663.137 14.8932 662.907 15.2796 662.586 15.6129C662.264 15.9425 661.866 16.2 661.392 16.3857C660.919 16.5675 660.387 16.6584 659.796 16.6584ZM665.129 19.7493V7.74929H666.425V9.13565H666.584C666.682 8.98414 666.819 8.79096 666.993 8.55611C667.171 8.31747 667.425 8.10535 667.754 7.91974C668.087 7.73035 668.538 7.63565 669.106 7.63565C669.841 7.63565 670.489 7.81937 671.05 8.18679C671.61 8.55421 672.048 9.07505 672.362 9.74929C672.676 10.4235 672.834 11.219 672.834 12.1357C672.834 13.0599 672.676 13.861 672.362 14.5391C672.048 15.2133 671.612 15.736 671.055 16.1072C670.498 16.4747 669.856 16.6584 669.129 16.6584C668.569 16.6584 668.12 16.5656 667.783 16.38C667.445 16.1906 667.186 15.9766 667.004 15.7379C666.822 15.4955 666.682 15.2947 666.584 15.1357H666.47V19.7493H665.129ZM666.447 12.1129C666.447 12.772 666.544 13.3535 666.737 13.8572C666.93 14.3572 667.212 14.7493 667.584 15.0334C667.955 15.3137 668.409 15.4538 668.947 15.4538C669.508 15.4538 669.976 15.3061 670.351 15.0107C670.73 14.7114 671.014 14.3099 671.203 13.8061C671.396 13.2985 671.493 12.7341 671.493 12.1129C671.493 11.4993 671.398 10.9463 671.209 10.4538C671.023 9.95762 670.741 9.56558 670.362 9.2777C669.987 8.98603 669.516 8.8402 668.947 8.8402C668.402 8.8402 667.944 8.97846 667.572 9.25497C667.201 9.5277 666.921 9.91027 666.731 10.4027C666.542 10.8913 666.447 11.4614 666.447 12.1129ZM677.127 16.6811C676.574 16.6811 676.072 16.5769 675.622 16.3686C675.171 16.1565 674.813 15.8516 674.548 15.4538C674.283 15.0523 674.15 14.5675 674.15 13.9993C674.15 13.4993 674.249 13.094 674.446 12.7834C674.642 12.469 674.906 12.2228 675.235 12.0447C675.565 11.8667 675.928 11.7341 676.326 11.647C676.728 11.5561 677.131 11.4841 677.536 11.4311C678.067 11.3629 678.497 11.3118 678.826 11.2777C679.16 11.2398 679.402 11.1773 679.553 11.0902C679.709 11.0031 679.786 10.8516 679.786 10.6357V10.5902C679.786 10.0296 679.633 9.59399 679.326 9.28338C679.023 8.97277 678.563 8.81747 677.946 8.81747C677.305 8.81747 676.803 8.95762 676.44 9.23793C676.076 9.51823 675.821 9.81747 675.673 10.1357L674.4 9.68111C674.627 9.1508 674.93 8.73793 675.309 8.44247C675.692 8.14323 676.108 7.9349 676.559 7.81747C677.014 7.69626 677.461 7.63565 677.9 7.63565C678.18 7.63565 678.502 7.66974 678.866 7.73793C679.233 7.80232 679.588 7.93679 679.928 8.14133C680.273 8.34588 680.559 8.65459 680.786 9.06747C681.014 9.48035 681.127 10.0334 681.127 10.7266V16.4766H679.786V15.2947H679.718C679.627 15.4841 679.476 15.6868 679.264 15.9027C679.052 16.1186 678.769 16.3023 678.417 16.4538C678.065 16.6054 677.635 16.6811 677.127 16.6811ZM677.332 15.4766C677.862 15.4766 678.309 15.3724 678.673 15.1641C679.04 14.9557 679.317 14.6868 679.502 14.3572C679.692 14.0277 679.786 13.6811 679.786 13.3175V12.0902C679.73 12.1584 679.605 12.2209 679.411 12.2777C679.222 12.3307 679.002 12.3781 678.752 12.4197C678.506 12.4576 678.266 12.4917 678.031 12.522C677.8 12.5485 677.612 12.5713 677.468 12.5902C677.12 12.6357 676.794 12.7095 676.491 12.8118C676.192 12.9103 675.949 13.0599 675.764 13.2607C675.582 13.4576 675.491 13.7266 675.491 14.0675C675.491 14.5334 675.663 14.8857 676.008 15.1243C676.356 15.3591 676.798 15.4766 677.332 15.4766ZM686.8 16.6584C685.982 16.6584 685.277 16.4652 684.687 16.0788C684.096 15.6925 683.641 15.1603 683.323 14.4822C683.005 13.8042 682.846 13.0296 682.846 12.1584C682.846 11.272 683.009 10.4898 683.334 9.81179C683.664 9.12997 684.122 8.59777 684.709 8.2152C685.3 7.82884 685.99 7.63565 686.777 7.63565C687.391 7.63565 687.944 7.74929 688.437 7.97656C688.929 8.20384 689.332 8.52202 689.647 8.93111C689.961 9.3402 690.156 9.81747 690.232 10.3629H688.891C688.789 9.9652 688.562 9.61293 688.209 9.30611C687.861 8.9955 687.391 8.8402 686.8 8.8402C686.277 8.8402 685.819 8.97656 685.425 9.24929C685.035 9.51823 684.73 9.89891 684.51 10.3913C684.295 10.88 684.187 11.4538 684.187 12.1129C684.187 12.7872 684.293 13.3743 684.505 13.8743C684.721 14.3743 685.024 14.7625 685.414 15.0391C685.808 15.3156 686.27 15.4538 686.8 15.4538C687.149 15.4538 687.465 15.3932 687.749 15.272C688.033 15.1508 688.274 14.9766 688.471 14.7493C688.668 14.522 688.808 14.2493 688.891 13.9311H690.232C690.156 14.4463 689.969 14.9103 689.67 15.3232C689.374 15.7322 688.982 16.058 688.493 16.3004C688.009 16.5391 687.444 16.6584 686.8 16.6584ZM695.531 16.6584C694.69 16.6584 693.965 16.4728 693.355 16.1016C692.749 15.7266 692.281 15.2038 691.952 14.5334C691.626 13.8591 691.463 13.075 691.463 12.1811C691.463 11.2872 691.626 10.4993 691.952 9.81747C692.281 9.13187 692.74 8.59777 693.327 8.2152C693.918 7.82884 694.607 7.63565 695.395 7.63565C695.85 7.63565 696.298 7.71141 696.742 7.86293C697.185 8.01444 697.588 8.26065 697.952 8.60156C698.315 8.93868 698.605 9.38565 698.821 9.94247C699.037 10.4993 699.145 11.1849 699.145 11.9993V12.5675H692.418V11.4084H697.781C697.781 10.916 697.683 10.4766 697.486 10.0902C697.293 9.70383 697.016 9.39891 696.656 9.17543C696.3 8.95194 695.88 8.8402 695.395 8.8402C694.861 8.8402 694.399 8.97277 694.009 9.23793C693.622 9.49929 693.325 9.8402 693.117 10.2607C692.908 10.6811 692.804 11.1319 692.804 11.6129V12.3857C692.804 13.0447 692.918 13.6035 693.145 14.0618C693.376 14.5163 693.696 14.8629 694.105 15.1016C694.514 15.3364 694.99 15.4538 695.531 15.4538C695.884 15.4538 696.202 15.4046 696.486 15.3061C696.774 15.2038 697.022 15.0523 697.23 14.8516C697.439 14.647 697.6 14.3932 697.713 14.0902L699.009 14.4538C698.872 14.8932 698.643 15.2796 698.321 15.6129C697.999 15.9425 697.601 16.2 697.128 16.3857C696.654 16.5675 696.122 16.6584 695.531 16.6584ZM705.227 16.4766V4.8402H706.636V15.2266H712.045V16.4766H705.227ZM713.907 16.4766V4.8402H715.316V15.2266H720.725V16.4766H713.907ZM731.497 8.47656H730.088C730.005 8.07126 729.859 7.7152 729.651 7.40838C729.446 7.10156 729.196 6.84399 728.901 6.63565C728.609 6.42353 728.285 6.26444 727.929 6.15838C727.573 6.05232 727.202 5.99929 726.815 5.99929C726.111 5.99929 725.472 6.17732 724.901 6.53338C724.332 6.88944 723.88 7.41406 723.543 8.10724C723.209 8.80043 723.043 9.6508 723.043 10.6584C723.043 11.666 723.209 12.5163 723.543 13.2095C723.88 13.9027 724.332 14.4273 724.901 14.7834C725.472 15.1394 726.111 15.3175 726.815 15.3175C727.202 15.3175 727.573 15.2644 727.929 15.1584C728.285 15.0523 728.609 14.8951 728.901 14.6868C729.196 14.4747 729.446 14.2152 729.651 13.9084C729.859 13.5978 730.005 13.2417 730.088 12.8402H731.497C731.391 13.4349 731.198 13.9671 730.918 14.4368C730.637 14.9065 730.289 15.3061 729.872 15.6357C729.455 15.9614 728.988 16.2095 728.469 16.38C727.954 16.5504 727.402 16.6357 726.815 16.6357C725.823 16.6357 724.94 16.3932 724.168 15.9084C723.395 15.4235 722.787 14.7341 722.344 13.8402C721.901 12.9463 721.679 11.8857 721.679 10.6584C721.679 9.43111 721.901 8.3705 722.344 7.47656C722.787 6.58262 723.395 5.89323 724.168 5.40838C724.94 4.92353 725.823 4.68111 726.815 4.68111C727.402 4.68111 727.954 4.76633 728.469 4.93679C728.988 5.10724 729.455 5.35724 729.872 5.68679C730.289 6.01255 730.637 6.41027 730.918 6.87997C731.198 7.34588 731.391 7.87808 731.497 8.47656ZM734.25 16.5675C733.969 16.5675 733.729 16.4671 733.528 16.2663C733.327 16.0656 733.227 15.825 733.227 15.5447C733.227 15.2644 733.327 15.0239 733.528 14.8232C733.729 14.6224 733.969 14.522 734.25 14.522C734.53 14.522 734.77 14.6224 734.971 14.8232C735.172 15.0239 735.272 15.2644 735.272 15.5447C735.272 15.7304 735.225 15.9008 735.13 16.0561C735.039 16.2114 734.916 16.3364 734.761 16.4311C734.609 16.522 734.439 16.5675 734.25 16.5675Z" fill="white"/>
</svg>
