<svg width="48" height="47" viewBox="0 0 48 47" fill="none" xmlns="http://www.w3.org/2000/svg">
<path d="M47.208 19.3698C48.0897 22.6601 48.1522 26.0838 47.2582 29.4628C44.1958 41.0348 32.0602 48.6301 20.1595 46.3571C8.40629 44.1307 -0.276212 31.7061 0.833341 18.7221C1.36331 12.4732 4.35851 7.19804 9.33118 3.93035C14.5654 0.463559 21.5283 -0.413014 28.4034 1.57235C38.1214 4.43015 45.0685 11.3849 47.208 19.3698ZM7.14512 26.6641C9.09114 33.9268 14.5813 39.8097 21.4103 41.1193C30.3646 42.8056 39.537 37.0794 41.8174 28.2973C44.1506 19.544 37.3345 9.88775 26.6587 6.81349C21.3418 5.27075 16.3214 5.84187 12.4272 8.43353C8.90976 10.7522 6.77804 14.5489 6.38517 19.1268C6.22202 21.7078 6.50003 24.2566 7.14512 26.6641Z" fill="#A7CEFC"/>
</svg>
