<svg width="91" height="89" viewBox="0 0 91 89" fill="none" xmlns="http://www.w3.org/2000/svg">
<path d="M89.5561 36.8959C91.1796 42.9548 91.1124 49.2517 88.9628 55.3324C81.9379 75.6212 59.4081 90.2593 38.7841 88.0014C18.2333 85.6809 1.2241 62.3276 0.886375 35.8834C0.718336 23.6717 5.57542 13.425 14.4811 7.03921C24.2975 0.0223263 38.12 -1.44505 52.3565 2.99745C71.9109 9.15444 85.664 22.3706 89.5561 36.8959ZM83.6771 53.7383C89.7414 36.2442 74.9041 15.7924 50.5375 8.12942C38.0701 4.24505 26.0954 5.3894 17.7968 11.3545C10.3979 16.6485 6.37205 25.2963 6.50825 35.7103C6.83048 59.5782 21.6503 80.6367 39.5506 82.6352C57.6715 84.6177 77.4578 71.661 83.6771 53.7383Z" fill="#A7CEFC"/>
</svg>
