<svg width="135" height="132" viewBox="0 0 135 132" fill="none" xmlns="http://www.w3.org/2000/svg">
<path d="M133.38 55.6826C135.724 64.4299 135.208 73.0832 131.83 81.1273C120.09 109.002 87.5081 131.623 59.1933 131.555C31.1401 131.287 5.33583 97.7761 0.445675 55.3493C-1.59106 36.4994 4.25219 20.6987 16.9103 10.8561C31.2421 -0.29512 52.628 -2.41294 75.5849 5.02565C101.817 13.6079 121.828 29.19 130.453 47.7798C131.688 50.3733 132.67 53.0344 133.38 55.6826ZM59.3604 126.134C85.0687 126.213 115.881 104.711 126.637 79.2073C130.461 70.1406 130.012 60.0686 125.348 50.0507C117.416 33.0385 98.1131 18.0839 73.7025 10.0887C52.6201 3.26594 33.2187 5.0671 20.4035 14.9948C9.30402 23.6027 4.21777 37.6953 6.05374 54.6207C10.525 93.8052 34.4603 125.882 59.3604 126.134Z" fill="#A7CEFC"/>
</svg>
