<svg width="184" height="178" viewBox="0 0 184 178" fill="none" xmlns="http://www.w3.org/2000/svg">
<path d="M181.84 75.1674C184.754 86.0413 183.872 96.6851 179.127 106.343C162.609 140.228 119.492 172.725 84.9314 177.384C51.6169 181.322 15.2085 137.449 2.02665 77.676C-3.36581 51.3391 2.68134 29.2479 18.994 15.4157C37.6908 -0.431625 67.3429 -3.4312 100.304 7.2616C138.932 19.9625 168.401 42.4715 179.145 67.4604C180.285 70.0363 181.152 72.5994 181.84 75.1674ZM9.77837 85.6194C23.8198 138.023 55.5646 175.404 84.3419 171.994C116.603 167.65 158.537 135.943 174.079 104.126C179.187 93.6397 179.147 81.7378 173.966 69.6222C163.808 45.9814 135.544 24.6118 98.3904 12.376C67.3985 2.31667 39.7933 4.89684 22.6336 19.4292C7.93122 31.8838 2.56687 52.1578 7.50571 76.4659C8.23887 79.5379 8.97201 82.61 9.77837 85.6194Z" fill="#A7CEFC"/>
</svg>
