<svg width="238" height="227" viewBox="0 0 238 227" fill="none" xmlns="http://www.w3.org/2000/svg">
<path d="M235.193 94.1137C238.526 106.552 237.264 118.631 231.411 129.36C210.663 167.604 157.067 212.198 116.741 224.724L116.657 224.746C79.1452 235.012 32.2968 183.573 5.34442 102.46C-4.94456 67.5869 0.333819 38.2617 20.3076 19.7929C43.1974 -1.39251 81.7239 -5.52273 126.045 8.44799C180.036 25.9346 219.919 55.2434 232.764 86.8946C233.735 89.3437 234.559 91.7463 235.193 94.1137ZM115.176 219.552C154.284 207.353 206.301 164.085 226.436 126.908C232.621 115.575 232.984 102.49 227.522 88.9873C215.243 58.7758 176.606 30.5951 124.142 13.6025C81.8849 0.282883 45.3947 3.95355 24.0937 23.6811C5.75059 40.6808 0.933287 68.0332 10.6632 100.82C36.2661 177.735 81.2205 228.822 115.176 219.552Z" fill="#A7CEFC"/>
</svg>
