<svg width="270" height="280" viewBox="0 0 270 280" fill="none" xmlns="http://www.w3.org/2000/svg">
<path d="M267.611 114.172C271.202 127.574 269.651 140.419 262.981 151.624C236.764 196.322 171.396 253.059 129.083 275.965C119.105 280.531 108.228 280.736 96.7059 276.684C61.1905 264.182 18.9831 210.251 -16.1898 132.374C-33.1592 87.6787 -29.4552 49.9591 -5.76194 26.0641C21.0864 -0.998611 69.1673 -6.74285 126.098 10.3C198.429 32.936 250.452 69.2703 265.364 107.463C266.281 109.712 267.02 111.965 267.611 114.172ZM-16.4938 113.274C-15.0101 118.812 -13.1788 124.471 -10.958 130.241C23.5545 206.661 64.5891 259.572 98.7455 271.536C108.878 275.1 118.241 274.957 126.616 271.121C168.059 248.663 232.382 192.895 258.13 148.967C265.008 137.362 265.703 123.672 260.131 109.425C245.795 72.7113 195.03 37.5452 124.321 15.4208C70.328 -0.731964 23.2114 4.58184 -1.72515 29.7131C-20.8113 48.9762 -25.8798 78.2452 -16.4938 113.274Z" fill="#A7CEFC"/>
</svg>
