<svg width="294" height="338" viewBox="0 0 294 338" fill="none" xmlns="http://www.w3.org/2000/svg">
<path d="M291.333 131.494C294.688 144.013 293.282 156.732 287.504 171.096L287.296 171.496C251.085 230.268 154.57 314.144 135.613 330.363L135.152 330.658C106.18 347.108 82.9771 333.715 50.3072 303.29C20.8515 274.284 -20.4116 227.067 -49.951 166.689C-75.3234 110.612 -74.0847 63.1891 -46.4769 33.0845C-15.7991 -0.33713 42.3272 -8.214 113 11.4256C180.34 27.3567 235.205 62.7145 264.065 90.5044C278.867 105.117 287.774 118.212 291.333 131.494ZM282.363 169.033C293.306 141.544 287.246 121.278 260.021 94.3834C231.7 67.0941 177.774 32.3878 111.434 16.6619C43.8248 -2.12137 -13.5998 5.35245 -42.2937 36.6082C-68.3772 65.0142 -69.3023 110.418 -44.815 164.366C-15.6058 224.016 25.2441 270.698 54.3513 299.411C85.5945 328.541 106.257 340.68 132.193 326.161C186.649 279.573 254.623 213.924 282.363 169.033Z" fill="#A7CEFC"/>
</svg>
