<svg width="319" height="402" viewBox="0 0 319 402" fill="none" xmlns="http://www.w3.org/2000/svg">
<path d="M317.12 149.304C320.281 161.101 319.009 173.311 314.01 187.897L313.989 187.988C305.631 210.183 284.552 231.915 262.283 254.912C251.952 265.551 241.319 276.571 231.446 288.076C216.69 303.856 203.599 320.48 190.989 336.546C175.49 356.267 160.835 374.945 145.447 388.702C112.085 414.456 86.292 396.768 47.6736 364.626C10.2856 330.864 -44.3182 277.847 -87.2927 206.446C-122.994 136.838 -125.06 78.0869 -93.1969 40.8641C-58.881 0.704929 9.73849 -9.98352 95.0842 11.5303C194.094 31.4901 263.718 86.3317 282.671 102.67C302.136 120.247 313.142 134.458 317.12 149.304ZM308.682 186.314C317.977 159.052 315.888 140.173 278.807 106.716C260.149 90.6424 191.434 36.5035 93.6656 16.8131C10.4463 -4.15233 -56.065 5.84216 -88.8673 44.2626C-119.217 79.7467 -116.859 136.399 -82.2739 203.854C-39.7243 274.508 14.4674 327.163 51.5488 360.62C91.2765 393.712 113.164 406.899 141.902 384.706C156.736 371.399 171.224 352.938 186.588 333.382C199.302 317.202 212.413 300.486 227.284 284.632C237.147 273.087 247.905 262.033 258.267 251.344C280.055 228.733 300.706 207.417 308.682 186.314Z" fill="#A7CEFC"/>
</svg>
