<svg width="377" height="543" viewBox="0 0 377 543" fill="none" xmlns="http://www.w3.org/2000/svg">
<path d="M374.828 178.231C377.043 186.496 376.616 195.986 374.931 209.339L374.911 209.603C368.974 235.965 344.622 262.101 318.87 289.73C301.253 308.599 283.093 328.13 268.487 349.676C243.851 381.135 227.659 416.739 211.996 451.126C201.498 474.238 191.561 496.081 179.458 516.053L179.197 516.424C142.424 560.338 116.338 542.901 68.9572 511.3C63.8076 507.863 58.3835 504.242 52.612 500.499C42.4969 492.802 31.3284 484.699 19.4843 476.089C-33.1808 437.862 -105.301 385.453 -174.587 302.825C-251.721 199.808 -242.2 101.697 -198.578 50.0992C-152.711 -2.18639 -81.5889 -5.71829 41.966 6.11644C167.855 21.6264 263.863 85.7837 315.433 120.261L321.184 124.096C356.185 150.627 370.527 162.181 374.828 178.231ZM369.356 208.683C373.898 172.244 369.214 167.521 317.805 128.442L312.212 124.694C261.032 90.4986 165.743 26.8371 41.2835 11.46C-80.1999 -0.198678 -150.041 3.07607 -194.217 53.4463C-236.441 103.379 -245.368 198.836 -170.046 299.458C-101.279 381.493 -29.4541 433.638 22.9581 471.76C34.8023 480.37 45.9708 488.473 56.0224 496.101C61.6357 499.758 67.0597 503.379 72.2514 506.805C119.685 538.434 141.381 552.92 174.743 513.231C186.617 493.578 196.429 471.94 206.854 449.063C222.61 414.35 238.959 378.489 263.897 346.649C278.628 324.897 296.965 305.19 314.718 286.155C339.874 259.158 363.663 233.603 369.356 208.683Z" fill="#A7CEFC"/>
</svg>
